<svg width="19" height="16" viewBox="0 0 19 16" fill="none" xmlns="http://www.w3.org/2000/svg">
<path d="M2.5 6L4 1.5H15L16.5 6M15 11C14.6022 11 14.2206 10.842 13.9393 10.5607C13.658 10.2794 13.5 9.89782 13.5 9.5C13.5 9.10218 13.658 8.72064 13.9393 8.43934C14.2206 8.15804 14.6022 8 15 8C15.3978 8 15.7794 8.15804 16.0607 8.43934C16.342 8.72064 16.5 9.10218 16.5 9.5C16.5 9.89782 16.342 10.2794 16.0607 10.5607C15.7794 10.842 15.3978 11 15 11ZM4 11C3.60218 11 3.22064 10.842 2.93934 10.5607C2.65804 10.2794 2.5 9.89782 2.5 9.5C2.5 9.10218 2.65804 8.72064 2.93934 8.43934C3.22064 8.15804 3.60218 8 4 8C4.39782 8 4.77936 8.15804 5.06066 8.43934C5.34196 8.72064 5.5 9.10218 5.5 9.5C5.5 9.89782 5.34196 10.2794 5.06066 10.5607C4.77936 10.842 4.39782 11 4 11ZM16.42 1C16.22 0.42 15.66 0 15 0H4C3.34 0 2.78 0.42 2.58 1L0.5 7V15C0.5 15.2652 0.605357 15.5196 0.792893 15.7071C0.98043 15.8946 1.23478 16 1.5 16H2.5C2.76522 16 3.01957 15.8946 3.20711 15.7071C3.39464 15.5196 3.5 15.2652 3.5 15V14H15.5V15C15.5 15.2652 15.6054 15.5196 15.7929 15.7071C15.9804 15.8946 16.2348 16 16.5 16H17.5C17.7652 16 18.0196 15.8946 18.2071 15.7071C18.3946 15.5196 18.5 15.2652 18.5 15V7L16.42 1Z" fill="#000030"/>
</svg>
