<svg width="13" height="16" viewBox="0 0 13 16" fill="none" xmlns="http://www.w3.org/2000/svg">
<path d="M11.6663 14H4.33301V4.66663H11.6663M11.6663 3.33329H4.33301C3.97939 3.33329 3.64025 3.47377 3.3902 3.72382C3.14015 3.97387 2.99967 4.313 2.99967 4.66663V14C2.99967 14.3536 3.14015 14.6927 3.3902 14.9428C3.64025 15.1928 3.97939 15.3333 4.33301 15.3333H11.6663C12.02 15.3333 12.3591 15.1928 12.6091 14.9428C12.8592 14.6927 12.9997 14.3536 12.9997 14V4.66663C12.9997 4.313 12.8592 3.97387 12.6091 3.72382C12.3591 3.47377 12.02 3.33329 11.6663 3.33329ZM9.66634 0.666626H1.66634C1.31272 0.666626 0.973581 0.807102 0.723532 1.05715C0.473484 1.3072 0.333008 1.64634 0.333008 1.99996V11.3333H1.66634V1.99996H9.66634V0.666626Z" fill="#050723"/>
</svg>
