<svg width="16" height="17" viewBox="0 0 16 17" fill="none" xmlns="http://www.w3.org/2000/svg">
<path d="M14.0781 0.875H1.70312C0.753906 0.875 0.015625 1.64844 0.015625 2.5625V14.9375C0.015625 15.8867 0.753906 16.625 1.70312 16.625H6.51953V11.2812H4.30469V8.75H6.51953V6.85156C6.51953 4.67188 7.82031 3.44141 9.78906 3.44141C10.7734 3.44141 11.7578 3.61719 11.7578 3.61719V5.76172H10.668C9.57812 5.76172 9.22656 6.42969 9.22656 7.13281V8.75H11.6523L11.2656 11.2812H9.22656V16.625H14.0781C14.9922 16.625 15.7656 15.8867 15.7656 14.9375V2.5625C15.7656 1.64844 14.9922 0.875 14.0781 0.875Z" fill="#1D8BC5"/>
</svg>
