<svg width="17" height="17" viewBox="0 0 17 17" fill="none" xmlns="http://www.w3.org/2000/svg">
<path d="M8.39062 4.70703C6.14062 4.70703 4.34766 6.53516 4.34766 8.75C4.34766 11 6.14062 12.793 8.39062 12.793C10.6055 12.793 12.4336 11 12.4336 8.75C12.4336 6.53516 10.6055 4.70703 8.39062 4.70703ZM8.39062 11.3867C6.94922 11.3867 5.75391 10.2266 5.75391 8.75C5.75391 7.30859 6.91406 6.14844 8.39062 6.14844C9.83203 6.14844 10.9922 7.30859 10.9922 8.75C10.9922 10.2266 9.83203 11.3867 8.39062 11.3867ZM13.5234 4.56641C13.5234 4.03906 13.1016 3.61719 12.5742 3.61719C12.0469 3.61719 11.625 4.03906 11.625 4.56641C11.625 5.09375 12.0469 5.51562 12.5742 5.51562C13.1016 5.51562 13.5234 5.09375 13.5234 4.56641ZM16.1953 5.51562C16.125 4.25 15.8438 3.125 14.9297 2.21094C14.0156 1.29688 12.8906 1.01562 11.625 0.945312C10.3242 0.875 6.42188 0.875 5.12109 0.945312C3.85547 1.01562 2.76562 1.29688 1.81641 2.21094C0.902344 3.125 0.621094 4.25 0.550781 5.51562C0.480469 6.81641 0.480469 10.7188 0.550781 12.0195C0.621094 13.2852 0.902344 14.375 1.81641 15.3242C2.76562 16.2383 3.85547 16.5195 5.12109 16.5898C6.42188 16.6602 10.3242 16.6602 11.625 16.5898C12.8906 16.5195 14.0156 16.2383 14.9297 15.3242C15.8438 14.375 16.125 13.2852 16.1953 12.0195C16.2656 10.7188 16.2656 6.81641 16.1953 5.51562ZM14.5078 13.3906C14.2617 14.0938 13.6992 14.6211 13.0312 14.9023C11.9766 15.3242 9.51562 15.2188 8.39062 15.2188C7.23047 15.2188 4.76953 15.3242 3.75 14.9023C3.04688 14.6211 2.51953 14.0938 2.23828 13.3906C1.81641 12.3711 1.92188 9.91016 1.92188 8.75C1.92188 7.625 1.81641 5.16406 2.23828 4.10938C2.51953 3.44141 3.04688 2.91406 3.75 2.63281C4.76953 2.21094 7.23047 2.31641 8.39062 2.31641C9.51562 2.31641 11.9766 2.21094 13.0312 2.63281C13.6992 2.87891 14.2266 3.44141 14.5078 4.10938C14.9297 5.16406 14.8242 7.625 14.8242 8.75C14.8242 9.91016 14.9297 12.3711 14.5078 13.3906Z" fill="#1D8BC5"/>
</svg>
