<svg width="17" height="17" viewBox="0 0 17 17" fill="none" xmlns="http://www.w3.org/2000/svg">
<path d="M15.3906 0.875H1.85547C1.25781 0.875 0.765625 1.40234 0.765625 2.03516V15.5C0.765625 16.1328 1.25781 16.625 1.85547 16.625H15.3906C15.9883 16.625 16.5156 16.1328 16.5156 15.5V2.03516C16.5156 1.40234 15.9883 0.875 15.3906 0.875ZM5.51172 14.375H3.19141V6.88672H5.51172V14.375ZM4.35156 5.83203C3.57812 5.83203 2.98047 5.23438 2.98047 4.49609C2.98047 3.75781 3.57812 3.125 4.35156 3.125C5.08984 3.125 5.6875 3.75781 5.6875 4.49609C5.6875 5.23438 5.08984 5.83203 4.35156 5.83203ZM14.2656 14.375H11.9102V10.7188C11.9102 9.875 11.9102 8.75 10.7148 8.75C9.48438 8.75 9.30859 9.69922 9.30859 10.6836V14.375H6.98828V6.88672H9.20312V7.90625H9.23828C9.55469 7.30859 10.3281 6.67578 11.4531 6.67578C13.8086 6.67578 14.2656 8.25781 14.2656 10.2617V14.375Z" fill="#1D8BC5"/>
</svg>
