<svg width="11" height="16" viewBox="0 0 11 16" fill="none" xmlns="http://www.w3.org/2000/svg">
<path d="M8.65625 0.875H2.09375C1.30273 0.875 0.6875 1.51953 0.6875 2.28125V14.4688C0.6875 15.2598 1.30273 15.875 2.09375 15.875H8.65625C9.41797 15.875 10.0625 15.2598 10.0625 14.4688V2.28125C10.0625 1.51953 9.41797 0.875 8.65625 0.875ZM5.375 14.9375C4.84766 14.9375 4.4375 14.5273 4.4375 14C4.4375 13.502 4.84766 13.0625 5.375 13.0625C5.87305 13.0625 6.3125 13.502 6.3125 14C6.3125 14.5273 5.87305 14.9375 5.375 14.9375ZM8.65625 11.7734C8.65625 11.9785 8.48047 12.125 8.30469 12.125H2.44531C2.24023 12.125 2.09375 11.9785 2.09375 11.7734V2.63281C2.09375 2.45703 2.24023 2.28125 2.44531 2.28125H8.30469C8.48047 2.28125 8.65625 2.45703 8.65625 2.63281V11.7734Z" fill="#1D8BC5"/>
</svg>
