<svg width="16" height="17" viewBox="0 0 16 17" fill="none" xmlns="http://www.w3.org/2000/svg">
<path d="M15.7656 2.5625C15.7656 1.64844 14.9922 0.875 14.0781 0.875H1.70312C0.753906 0.875 0.015625 1.64844 0.015625 2.5625V14.9375C0.015625 15.8867 0.753906 16.625 1.70312 16.625H4.79688H4.72656C4.48047 14.5859 4.65625 14.5156 5.78125 9.83984C5.78125 9.83984 5.5 9.3125 5.5 8.57422C5.5 6.07812 8.17188 5.83203 8.17188 7.69531C8.17188 8.43359 7.67969 9.52344 7.43359 10.543C7.25781 11.4219 7.89062 12.125 8.73438 12.125C10.2812 12.125 11.4414 10.5078 11.4414 8.15234C11.4414 6.11328 9.96484 4.63672 7.82031 4.63672C5.39453 4.63672 3.95312 6.5 3.95312 8.39844C3.95312 9.13672 4.23438 9.94531 4.58594 10.3672C4.65625 10.4375 4.65625 10.543 4.65625 10.6133C4.58594 10.8945 4.44531 11.457 4.41016 11.5977C4.375 11.7383 4.26953 11.7734 4.12891 11.7031C3.03906 11.2109 2.37109 9.62891 2.37109 8.36328C2.37109 5.65625 4.33984 3.125 8.06641 3.125C11.0547 3.125 13.375 5.26953 13.375 8.11719C13.375 11.1055 11.5117 13.4961 8.91016 13.4961C8.03125 13.4961 7.22266 13.0391 6.94141 12.5117C6.94141 12.5117 6.48438 14.1641 6.37891 14.5508C6.20312 15.2188 5.78125 16.0625 5.42969 16.625H14.0781C14.9922 16.625 15.7656 15.8867 15.7656 14.9375V2.5625Z" fill="#1D8BC5"/>
</svg>
