<svg width="17" height="17" viewBox="0 0 17 17" fill="none" xmlns="http://www.w3.org/2000/svg">
<path d="M6.80469 6.88672V10.6836L10.1797 8.78516L6.80469 6.88672ZM16.0156 2.5625C16.0156 1.64844 15.2422 0.875 14.3281 0.875H1.95312C1.00391 0.875 0.265625 1.64844 0.265625 2.5625V14.9375C0.265625 15.8867 1.00391 16.625 1.95312 16.625H14.3281C15.2422 16.625 16.0156 15.8867 16.0156 14.9375V2.5625ZM14.5391 8.78516C14.5391 8.78516 14.5391 10.8594 14.2578 11.8789C14.1172 12.4414 13.6602 12.8633 13.1328 13.0039C12.1133 13.25 8.14062 13.25 8.14062 13.25C8.14062 13.25 4.13281 13.25 3.11328 13.0039C2.58594 12.8633 2.12891 12.4414 1.98828 11.8789C1.74219 10.8594 1.74219 8.78516 1.74219 8.78516C1.74219 8.78516 1.74219 6.67578 1.98828 5.69141C2.12891 5.12891 2.58594 4.67188 3.11328 4.53125C4.13281 4.25 8.14062 4.25 8.14062 4.25C8.14062 4.25 12.1133 4.25 13.1328 4.53125C13.6602 4.67188 14.1172 5.12891 14.2578 5.69141C14.5391 6.67578 14.5391 8.78516 14.5391 8.78516Z" fill="#1D8BC5"/>
</svg>
