<svg width="16" height="16" viewBox="0 0 16 16" fill="none" xmlns="http://www.w3.org/2000/svg">
<path d="M13.8333 2.16667V13.8333H2.16667V2.16667H13.8333ZM13.8333 0.5H2.16667C1.25 0.5 0.5 1.25 0.5 2.16667V13.8333C0.5 14.75 1.25 15.5 2.16667 15.5H13.8333C14.75 15.5 15.5 14.75 15.5 13.8333V2.16667C15.5 1.25 14.75 0.5 13.8333 0.5ZM6.33333 13V9.66667H7.16667V7.58333C7.16667 6.66667 6.41667 5.91667 5.5 5.91667H4.66667C3.75 5.91667 3 6.66667 3 7.58333V9.66667H3.83333V13H6.33333ZM5.08333 5.08333C5.65833 5.08333 6.125 4.61667 6.125 4.04167C6.125 3.46667 5.65833 3 5.08333 3C4.50833 3 4.04167 3.46667 4.04167 4.04167C4.04167 4.61667 4.50833 5.08333 5.08333 5.08333ZM13 7.16667L10.9167 3.83333L8.83333 7.16667H13ZM8.83333 8.83333L10.9167 12.1667L13 8.83333H8.83333Z" fill="#000D58"/>
</svg>
