<svg width="16" height="14" viewBox="0 0 16 14" fill="none" xmlns="http://www.w3.org/2000/svg">
<path d="M2.16667 5.16797L3.41667 1.41797H12.5833L13.8333 5.16797M12.5833 9.33464C12.2518 9.33464 11.9339 9.20294 11.6995 8.96852C11.465 8.7341 11.3333 8.41616 11.3333 8.08464C11.3333 7.75312 11.465 7.43517 11.6995 7.20075C11.9339 6.96633 12.2518 6.83464 12.5833 6.83464C12.9149 6.83464 13.2328 6.96633 13.4672 7.20075C13.7016 7.43517 13.8333 7.75312 13.8333 8.08464C13.8333 8.41616 13.7016 8.7341 13.4672 8.96852C13.2328 9.20294 12.9149 9.33464 12.5833 9.33464ZM3.41667 9.33464C3.08515 9.33464 2.7672 9.20294 2.53278 8.96852C2.29836 8.7341 2.16667 8.41616 2.16667 8.08464C2.16667 7.75312 2.29836 7.43517 2.53278 7.20075C2.7672 6.96633 3.08515 6.83464 3.41667 6.83464C3.74819 6.83464 4.06613 6.96633 4.30055 7.20075C4.53497 7.43517 4.66667 7.75312 4.66667 8.08464C4.66667 8.41616 4.53497 8.7341 4.30055 8.96852C4.06613 9.20294 3.74819 9.33464 3.41667 9.33464ZM13.7667 1.0013C13.6 0.517969 13.1333 0.167969 12.5833 0.167969H3.41667C2.86667 0.167969 2.4 0.517969 2.23333 1.0013L0.5 6.0013V12.668C0.5 12.889 0.587797 13.1009 0.744078 13.2572C0.900358 13.4135 1.11232 13.5013 1.33333 13.5013H2.16667C2.38768 13.5013 2.59964 13.4135 2.75592 13.2572C2.9122 13.1009 3 12.889 3 12.668V11.8346H13V12.668C13 12.889 13.0878 13.1009 13.2441 13.2572C13.4004 13.4135 13.6123 13.5013 13.8333 13.5013H14.6667C14.8877 13.5013 15.0996 13.4135 15.2559 13.2572C15.4122 13.1009 15.5 12.889 15.5 12.668V6.0013L13.7667 1.0013Z" fill="#000030"/>
</svg>
