<svg width="20" height="21" viewBox="0 0 20 21" fill="none" xmlns="http://www.w3.org/2000/svg">
<path d="M10 0.362305C4.5 0.362305 0 4.8523 0 10.3823C0 15.3823 3.66 19.5323 8.44 20.2823V13.2823H5.9V10.3823H8.44V8.17231C8.44 5.6623 9.93 4.2823 12.22 4.2823C13.31 4.2823 14.45 4.4723 14.45 4.4723V6.9423H13.19C11.95 6.9423 11.56 7.71231 11.56 8.50231V10.3823H14.34L13.89 13.2823H11.56V20.2823C13.9164 19.9101 16.0622 18.7078 17.6099 16.8924C19.1576 15.0769 20.0054 12.7679 20 10.3823C20 4.8523 15.5 0.362305 10 0.362305Z" fill="white"/>
</svg>
