<svg width="18" height="19" viewBox="0 0 18 19" fill="none" xmlns="http://www.w3.org/2000/svg">
<path d="M16 0.322266C16.5304 0.322266 17.0391 0.532979 17.4142 0.908052C17.7893 1.28312 18 1.79183 18 2.32227V16.3223C18 16.8527 17.7893 17.3614 17.4142 17.7365C17.0391 18.1116 16.5304 18.3223 16 18.3223H2C1.46957 18.3223 0.960859 18.1116 0.585786 17.7365C0.210714 17.3614 0 16.8527 0 16.3223V2.32227C0 1.79183 0.210714 1.28312 0.585786 0.908052C0.960859 0.532979 1.46957 0.322266 2 0.322266H16ZM15.5 15.8223V10.5223C15.5 9.65766 15.1565 8.82847 14.5452 8.2171C13.9338 7.60573 13.1046 7.26227 12.24 7.26227C11.39 7.26227 10.4 7.78227 9.92 8.56227V7.45227H7.13V15.8223H9.92V10.8923C9.92 10.1223 10.54 9.49227 11.31 9.49227C11.6813 9.49227 12.0374 9.63976 12.2999 9.90232C12.5625 10.1649 12.71 10.521 12.71 10.8923V15.8223H15.5ZM3.88 5.88227C4.32556 5.88227 4.75288 5.70527 5.06794 5.39021C5.383 5.07514 5.56 4.64783 5.56 4.20227C5.56 3.27227 4.81 2.51227 3.88 2.51227C3.43178 2.51227 3.00193 2.69032 2.68499 3.00726C2.36805 3.32419 2.19 3.75405 2.19 4.20227C2.19 5.13227 2.95 5.88227 3.88 5.88227ZM5.27 15.8223V7.45227H2.5V15.8223H5.27Z" fill="white"/>
</svg>
