<svg width="121" height="48" viewBox="0 0 121 48" fill="none" xmlns="http://www.w3.org/2000/svg">
<path d="M20.7298 2.99599L2.58775 13.498V34.502L20.7298 45.004L38.8718 34.502V31.1362H41.4595V36L20.7298 48L0 36V12L20.7298 1.52588e-05L41.4595 12V17.1599H38.8718V13.498L20.7298 2.99599Z" fill="#0727B7"/>
<path d="M20.7299 6.56376L5.63867 15.2559L3.05092 13.7579L20.7299 3.56778V6.56376Z" fill="#0727B7"/>
<path d="M20.7299 41.3921L5.63867 32.7L3.05092 34.198L20.7299 44.3881V41.3921Z" fill="#0727B7"/>
<path d="M21.5871 30.0654C19.7607 30.0654 18.3667 29.5561 17.4049 28.5376C16.4539 27.5191 15.9784 26.0726 15.9784 24.1981C15.9784 23.2662 16.1243 22.4373 16.4161 21.7114C16.7078 20.9746 17.1077 20.357 17.6156 19.8585C18.1235 19.3493 18.7287 18.9646 19.4311 18.7046C20.1336 18.4445 20.8954 18.3145 21.7168 18.3145C22.1922 18.3145 22.6245 18.3524 23.0136 18.4283C23.4026 18.4933 23.743 18.5746 24.0348 18.6721C24.3266 18.7588 24.5697 18.8509 24.7642 18.9484C24.9588 19.0459 25.0992 19.1217 25.1857 19.1759L24.4563 21.2238C24.1104 21.0396 23.7052 20.8825 23.2405 20.7525C22.7866 20.6224 22.2679 20.5574 21.6843 20.5574C21.2953 20.5574 20.9117 20.6224 20.5334 20.7525C20.166 20.8825 19.8364 21.0938 19.5446 21.3863C19.2636 21.668 19.0367 22.0364 18.8638 22.4915C18.6909 22.9466 18.6044 23.4992 18.6044 24.1493C18.6044 24.6694 18.6585 25.157 18.7665 25.6121C18.8854 26.0563 19.0691 26.441 19.3177 26.766C19.577 27.0911 19.912 27.3511 20.3227 27.5462C20.7333 27.7304 21.2305 27.8225 21.814 27.8225C22.1814 27.8225 22.511 27.8008 22.8028 27.7575C23.0946 27.7141 23.354 27.6654 23.5809 27.6112C23.8078 27.5462 24.0078 27.4758 24.1807 27.3999C24.3536 27.3241 24.5103 27.2536 24.6508 27.1886L25.3478 29.2202C24.9912 29.4369 24.4887 29.632 23.8403 29.8053C23.1919 29.9787 22.4408 30.0654 21.5871 30.0654Z" fill="#0727B7"/>
<path d="M33.7517 18.5746H36.2805V29.8378H33.7517V25.0595H29.5047V29.8378H26.9759V18.5746H29.5047V22.8816H33.7517V18.5746Z" fill="#0727B7"/>
<path d="M38.8802 18.5746H41.4089V29.8378H38.8802V18.5746Z" fill="#0727B7"/>
<path d="M46.9918 18.5746C47.1863 18.9321 47.4078 19.3764 47.6564 19.9073C47.9157 20.4274 48.1805 20.9962 48.4507 21.6139C48.7316 22.2206 49.0072 22.8437 49.2774 23.4829C49.5476 24.1222 49.8015 24.7236 50.0393 25.287C50.277 24.7236 50.531 24.1222 50.8011 23.4829C51.0713 22.8437 51.3415 22.2206 51.6116 21.6139C51.8926 20.9962 52.1574 20.4274 52.4059 19.9073C52.6653 19.3764 52.8922 18.9321 53.0867 18.5746H55.3886C55.4966 19.3222 55.5939 20.1619 55.6804 21.0938C55.7776 22.0148 55.8587 22.9791 55.9235 23.9868C55.9992 24.9836 56.064 25.9859 56.118 26.9936C56.1829 28.0013 56.2369 28.9494 56.2801 29.8378H53.8162C53.7838 28.7435 53.7406 27.5516 53.6865 26.2622C53.6325 24.9728 53.5514 23.6726 53.4434 22.3615C53.2488 22.8166 53.0327 23.3204 52.795 23.873C52.5572 24.4256 52.3195 24.9782 52.0817 25.5308C51.8548 26.0834 51.6332 26.6143 51.4171 27.1236C51.201 27.622 51.0173 28.05 50.866 28.4076H49.0991C48.9478 28.05 48.7641 27.622 48.5479 27.1236C48.3318 26.6143 48.1049 26.0834 47.8671 25.5308C47.6402 24.9782 47.4078 24.4256 47.1701 23.873C46.9323 23.3204 46.7162 22.8166 46.5217 22.3615C46.4136 23.6726 46.3326 24.9728 46.2785 26.2622C46.2245 27.5516 46.1813 28.7435 46.1488 29.8378H43.6849C43.7281 28.9494 43.7768 28.0013 43.8308 26.9936C43.8956 25.9859 43.9605 24.9836 44.0253 23.9868C44.101 22.9791 44.182 22.0148 44.2685 21.0938C44.3657 20.1619 44.4684 19.3222 44.5765 18.5746H46.9918Z" fill="#0727B7"/>
<path d="M66.7307 18.5746V20.7362H63.3428V29.8378H60.814V20.7362H57.4261V18.5746H66.7307Z" fill="#0727B7"/>
<path d="M68.3559 29.8378V18.5746H75.9422V20.7037H70.8846V22.9141H75.3748V24.9945H70.8846V27.7087H76.315V29.8378H68.3559Z" fill="#0727B7"/>
<path d="M84.9546 29.8378C84.6412 29.2094 84.2954 28.5755 83.9171 27.9363C83.5497 27.2861 83.1228 26.6252 82.6365 25.9534C82.4852 26.1484 82.2907 26.4193 82.053 26.766C81.826 27.1128 81.5937 27.4812 81.3559 27.8712C81.129 28.2613 80.9129 28.6351 80.7075 28.9927C80.5022 29.3503 80.3509 29.632 80.2536 29.8378H77.3683C77.8438 28.9602 78.3949 28.0392 79.0217 27.0748C79.6593 26.1105 80.3671 25.0866 81.1452 24.003L77.5304 18.5746H80.5941L82.7824 22.0852L84.9221 18.5746H87.8075L84.2413 24.0355C85.1491 25.2166 85.911 26.311 86.5269 27.3186C87.1429 28.3155 87.6292 29.1552 87.9858 29.8378H84.9546Z" fill="#0727B7"/>
<path d="M100.841 27.66V29.8378H93.3358V18.5746H95.8646V27.66H100.841Z" fill="#0727B7"/>
<path d="M109.535 18.5746V20.7362H106.147V29.8378H103.619V20.7362H100.231V18.5746H109.535Z" fill="#0727B7"/>
<path d="M113.689 27.7737C113.808 27.7846 113.943 27.7954 114.095 27.8062C114.257 27.8062 114.446 27.8062 114.662 27.8062C115.926 27.8062 116.861 27.4866 117.466 26.8473C118.082 26.208 118.39 25.3249 118.39 24.1981C118.39 23.017 118.098 22.1231 117.515 21.5163C116.931 20.9096 116.007 20.6062 114.743 20.6062C114.57 20.6062 114.392 20.6116 114.208 20.6224C114.024 20.6224 113.851 20.6333 113.689 20.6549V27.7737ZM121 24.1981C121 25.1733 120.849 26.0238 120.546 26.7498C120.244 27.4758 119.811 28.0771 119.249 28.5539C118.698 29.0306 118.023 29.3882 117.223 29.6266C116.423 29.8649 115.526 29.9841 114.532 29.9841C114.078 29.9841 113.549 29.9624 112.944 29.9191C112.338 29.8866 111.744 29.8108 111.161 29.6916V18.7208C111.744 18.6125 112.349 18.5421 112.976 18.5095C113.614 18.4662 114.159 18.4445 114.613 18.4445C115.575 18.4445 116.445 18.5529 117.223 18.7696C118.012 18.9863 118.687 19.3276 119.249 19.7935C119.811 20.2594 120.244 20.8554 120.546 21.5814C120.849 22.3073 121 23.1796 121 24.1981Z" fill="#0727B7"/>
</svg>
