<svg width="168" height="67" viewBox="0 0 168 67" fill="none" xmlns="http://www.w3.org/2000/svg">
<path d="M28.7818 4.15971L3.59291 18.741V47.9036L28.7818 62.4849L53.9708 47.9036V43.2304H57.5637V49.9835L28.7818 66.6446L0 49.9835V16.6612L28.7818 0L57.5637 16.6612V23.8253H53.9708V18.741L28.7818 4.15971Z" fill="#F2F4F7"/>
<path d="M28.782 9.11332L7.8289 21.1818L4.23599 19.1019L28.782 4.95361V9.11332Z" fill="#F2F4F7"/>
<path d="M28.782 57.4702L7.8289 45.4017L4.23599 47.4816L28.782 61.6299V57.4702Z" fill="#F2F4F7"/>
<path d="M29.9721 41.7435C27.4364 41.7435 25.5008 41.0364 24.1654 39.6223C22.8451 38.2081 22.1849 36.1998 22.1849 33.5971C22.1849 32.3033 22.3874 31.1525 22.7926 30.1445C23.1977 29.1215 23.7528 28.264 24.458 27.572C25.1632 26.8649 26.0035 26.3309 26.9788 25.9698C27.954 25.6088 29.0119 25.4282 30.1522 25.4282C30.8124 25.4282 31.4126 25.4809 31.9527 25.5862C32.4929 25.6764 32.9655 25.7893 33.3706 25.9247C33.7757 26.045 34.1133 26.1729 34.3834 26.3083C34.6535 26.4437 34.8485 26.549 34.9686 26.6242L33.9558 29.4675C33.4756 29.2118 32.913 28.9937 32.2678 28.8131C31.6376 28.6326 30.9174 28.5423 30.1072 28.5423C29.567 28.5423 29.0344 28.6326 28.5092 28.8131C27.9991 28.9937 27.5414 29.287 27.1363 29.6932C26.7462 30.0844 26.4311 30.5959 26.191 31.2277C25.951 31.8596 25.8309 32.6268 25.8309 33.5294C25.8309 34.2516 25.906 34.9285 26.056 35.5604C26.221 36.1772 26.4761 36.7113 26.8212 37.1626C27.1813 37.6139 27.6465 37.975 28.2166 38.2457C28.7868 38.5015 29.477 38.6294 30.2872 38.6294C30.7974 38.6294 31.255 38.5993 31.6601 38.5391C32.0652 38.4789 32.4253 38.4112 32.7404 38.336C33.0555 38.2457 33.3331 38.148 33.5732 38.0427C33.8132 37.9373 34.0308 37.8396 34.2259 37.7493L35.1936 40.5701C34.6985 40.8709 34.0008 41.1417 33.1005 41.3824C32.2003 41.6231 31.1575 41.7435 29.9721 41.7435Z" fill="#F2F4F7"/>
<path d="M46.8619 25.7893H50.3729V41.4276H46.8619V34.7931H40.9652V41.4276H37.4541V25.7893H40.9652V31.7693H46.8619V25.7893Z" fill="#F2F4F7"/>
<path d="M53.9824 25.7893H57.4934V41.4276H53.9824V25.7893Z" fill="#F2F4F7"/>
<path d="M65.2448 25.7893C65.5149 26.2857 65.8224 26.9025 66.1675 27.6397C66.5277 28.3618 66.8953 29.1516 67.2704 30.0091C67.6605 30.8516 68.0431 31.7166 68.4182 32.6042C68.7933 33.4918 69.1459 34.3268 69.476 35.1091C69.8061 34.3268 70.1587 33.4918 70.5338 32.6042C70.9089 31.7166 71.284 30.8516 71.6591 30.0091C72.0493 29.1516 72.4169 28.3618 72.762 27.6397C73.1221 26.9025 73.4372 26.2857 73.7072 25.7893H76.9032C77.0532 26.8273 77.1882 27.9932 77.3083 29.287C77.4433 30.5658 77.5558 31.9047 77.6459 33.3038C77.7509 34.6878 77.8409 36.0794 77.916 37.4785C78.006 38.8776 78.081 40.194 78.141 41.4276H74.72C74.675 39.9081 74.615 38.2533 74.54 36.463C74.465 34.6728 74.3524 32.8675 74.2024 31.0472C73.9323 31.679 73.6322 32.3786 73.3021 33.1458C72.972 33.9131 72.6419 34.6803 72.3118 35.4476C71.9967 36.2148 71.6891 36.952 71.3891 37.659C71.089 38.3511 70.8339 38.9453 70.6238 39.4417H68.1706C67.9606 38.9453 67.7055 38.3511 67.4054 37.659C67.1053 36.952 66.7902 36.2148 66.4601 35.4476C66.145 34.6803 65.8224 33.9131 65.4924 33.1458C65.1623 32.3786 64.8622 31.679 64.5921 31.0472C64.442 32.8675 64.3295 34.6728 64.2545 36.463C64.1795 38.2533 64.1195 39.9081 64.0744 41.4276H60.6534C60.7135 40.194 60.781 38.8776 60.856 37.4785C60.946 36.0794 61.0361 34.6878 61.1261 33.3038C61.2311 31.9047 61.3436 30.5658 61.4637 29.287C61.5987 27.9932 61.7413 26.8273 61.8913 25.7893H65.2448Z" fill="#F2F4F7"/>
<path d="M92.6509 25.7893V28.7906H87.947V41.4276H84.436V28.7906H79.7321V25.7893H92.6509Z" fill="#F2F4F7"/>
<path d="M94.9073 41.4276V25.7893H105.44V28.7454H98.4183V31.8144H104.653V34.7029H98.4183V38.4714H105.958V41.4276H94.9073Z" fill="#F2F4F7"/>
<path d="M117.953 41.4276C117.518 40.555 117.038 39.6749 116.513 38.7873C116.003 37.8847 115.41 36.967 114.735 36.0343C114.525 36.3051 114.255 36.6812 113.925 37.1626C113.61 37.644 113.287 38.1555 112.957 38.6971C112.642 39.2387 112.342 39.7577 112.057 40.2541C111.772 40.7506 111.562 41.1417 111.427 41.4276H107.42C108.081 40.209 108.846 38.9303 109.716 37.5913C110.601 36.2524 111.584 34.8307 112.664 33.3263L107.645 25.7893H111.899L114.938 30.6635L117.908 25.7893H121.915L116.963 33.3715C118.224 35.0113 119.281 36.5307 120.137 37.9298C120.992 39.3139 121.667 40.4798 122.162 41.4276H117.953Z" fill="#F2F4F7"/>
<path d="M140.011 38.4037V41.4276H129.59V25.7893H133.101V38.4037H140.011Z" fill="#F2F4F7"/>
<path d="M152.082 25.7893V28.7906H147.378V41.4276H143.867V28.7906H139.163V25.7893H152.082Z" fill="#F2F4F7"/>
<path d="M157.85 38.5617C158.015 38.5767 158.202 38.5918 158.412 38.6068C158.637 38.6068 158.9 38.6068 159.2 38.6068C160.956 38.6068 162.253 38.163 163.094 37.2754C163.949 36.3878 164.377 35.1617 164.377 33.5971C164.377 31.9573 163.971 30.7162 163.161 29.8737C162.351 29.0313 161.068 28.61 159.313 28.61C159.072 28.61 158.825 28.6176 158.57 28.6326C158.315 28.6326 158.075 28.6476 157.85 28.6777V38.5617ZM168 33.5971C168 34.9511 167.79 36.1321 167.37 37.14C166.95 38.148 166.35 38.9829 165.569 39.6448C164.804 40.3068 163.866 40.8032 162.756 41.1342C161.646 41.4652 160.4 41.6307 159.02 41.6307C158.39 41.6307 157.655 41.6006 156.814 41.5404C155.974 41.4953 155.149 41.39 154.339 41.2245V25.9924C155.149 25.8419 155.989 25.7441 156.859 25.699C157.745 25.6388 158.502 25.6088 159.133 25.6088C160.468 25.6088 161.676 25.7592 162.756 26.0601C163.851 26.361 164.789 26.8348 165.569 27.4817C166.35 28.1286 166.95 28.9561 167.37 29.964C167.79 30.972 168 32.183 168 33.5971Z" fill="#F2F4F7"/>
</svg>
