<svg width="24" height="24" viewBox="0 0 24 24" fill="none" xmlns="http://www.w3.org/2000/svg">
<path d="M1 20.5C1 19.6716 1.67157 19 2.5 19H7.5C8.32843 19 9 19.6716 9 20.5C9 21.3284 8.32843 22 7.5 22H2.5C1.67157 22 1 21.3284 1 20.5Z" fill="#050723"/>
<path d="M1 12.5C1 11.6716 1.67157 11 2.5 11H14.5C15.3284 11 16 11.6716 16 12.5C16 13.3284 15.3284 14 14.5 14H2.5C1.67157 14 1 13.3284 1 12.5Z" fill="#050723"/>
<path d="M1 4.5C1 3.67157 1.67157 3 2.5 3H21.5C22.3284 3 23 3.67157 23 4.5C23 5.32843 22.3284 6 21.5 6H2.5C1.67157 6 1 5.32843 1 4.5Z" fill="#050723"/>
</svg>
