<svg width="249" height="174" viewBox="0 0 249 174" fill="none" xmlns="http://www.w3.org/2000/svg">
<path d="M33.8 171L167.64 -25H214.96L81.12 171H33.8ZM52.56 81.4C42.6667 81.4 33.8 79.3467 25.96 75.24C18.12 70.9467 11.8667 64.6933 7.2 56.48C2.72 48.2667 0.48 38.3733 0.48 26.8C0.48 15.2267 2.72 5.42666 7.2 -2.6C11.8667 -10.8133 18.12 -17.0667 25.96 -21.36C33.8 -25.6533 42.6667 -27.8 52.56 -27.8C62.4533 -27.8 71.32 -25.6533 79.16 -21.36C87 -17.0667 93.16 -10.8133 97.64 -2.6C102.307 5.42666 104.64 15.2267 104.64 26.8C104.64 38.3733 102.307 48.2667 97.64 56.48C93.16 64.6933 87 70.9467 79.16 75.24C71.32 79.3467 62.4533 81.4 52.56 81.4ZM52.56 51.16C55.7333 51.16 58.5333 49.48 60.96 46.12C63.5733 42.5733 64.88 36.1333 64.88 26.8C64.88 17.4667 63.5733 11.12 60.96 7.76C58.5333 4.21332 55.7333 2.43998 52.56 2.43998C49.5733 2.43998 46.7733 4.21332 44.16 7.76C41.5467 11.12 40.24 17.4667 40.24 26.8C40.24 36.1333 41.5467 42.5733 44.16 46.12C46.7733 49.48 49.5733 51.16 52.56 51.16ZM196.2 173.8C186.307 173.8 177.44 171.747 169.6 167.64C161.76 163.347 155.507 157.093 150.84 148.88C146.36 140.667 144.12 130.773 144.12 119.2C144.12 107.627 146.36 97.8267 150.84 89.8C155.507 81.5867 161.76 75.3333 169.6 71.04C177.44 66.7467 186.307 64.6 196.2 64.6C206.093 64.6 214.96 66.7467 222.8 71.04C230.64 75.3333 236.8 81.5867 241.28 89.8C245.947 97.8267 248.28 107.627 248.28 119.2C248.28 130.773 245.947 140.667 241.28 148.88C236.8 157.093 230.64 163.347 222.8 167.64C214.96 171.747 206.093 173.8 196.2 173.8ZM196.2 143.56C199.373 143.56 202.173 141.88 204.6 138.52C207.213 134.973 208.52 128.533 208.52 119.2C208.52 109.867 207.213 103.52 204.6 100.16C202.173 96.6133 199.373 94.84 196.2 94.84C193.213 94.84 190.413 96.6133 187.8 100.16C185.187 103.52 183.88 109.867 183.88 119.2C183.88 128.533 185.187 134.973 187.8 138.52C190.413 141.88 193.213 143.56 196.2 143.56Z" fill="white"/>
</svg>
