<svg width="52" height="52" viewBox="0 0 52 52" fill="none" xmlns="http://www.w3.org/2000/svg">
<rect width="52" height="52" fill="#1D8BC5"/>
<path d="M21.8333 13.8666L33.0667 25.0666C33.2 25.2 33.2942 25.3444 33.3493 25.5C33.4053 25.6555 33.4333 25.8222 33.4333 26C33.4333 26.1777 33.4053 26.3444 33.3493 26.5C33.2942 26.6555 33.2 26.8 33.0667 26.9333L21.8333 38.1666C21.5222 38.4777 21.1333 38.6333 20.6667 38.6333C20.2 38.6333 19.8 38.4666 19.4667 38.1333C19.1334 37.8 18.9667 37.4111 18.9667 36.9666C18.9667 36.5222 19.1334 36.1333 19.4667 35.8L29.2667 26L19.4667 16.2C19.1556 15.8889 19 15.5057 19 15.0506C19 14.5946 19.1667 14.2 19.5 13.8666C19.8333 13.5333 20.2222 13.3666 20.6667 13.3666C21.1111 13.3666 21.5 13.5333 21.8333 13.8666Z" fill="white"/>
</svg>
