<svg width="282" height="150" viewBox="0 0 282 150" fill="none" xmlns="http://www.w3.org/2000/svg">
<path d="M229.095 27.1164H242.654V97.8835H255.683V27.1164H269.241V15.2777H229.095V27.1164ZM202.442 27.1164H224.863V15.2777H189.479V97.8835H224.863V86.1111H202.442V61.9047H220.233V50.1322H202.442V27.1164ZM149.466 97.8835H183.791V86.1111H162.429V15.2777H149.466V97.8835ZM103.632 27.1164H117.191V97.8835H130.154V27.1164H143.712V15.2777H103.566V27.1164H103.632ZM59.8493 15.2777V78.1745C59.8493 91.4021 66.4631 98.9417 79.2276 98.9417C91.9922 98.9417 98.6059 91.4021 98.6059 78.1745V15.2777H86.3043V79.0343C86.3043 84.9206 83.725 87.037 79.5583 87.037C75.4578 87.037 72.8123 84.9206 72.8123 79.0343V15.2777H59.8493ZM12.6932 78.1084C12.6932 91.3359 19.6377 98.8756 32.4022 98.8756C45.1668 98.8756 52.1112 91.3359 52.1112 78.1084V35.119C52.1112 21.8915 45.1668 14.3518 32.4022 14.3518C19.6377 14.3518 12.6932 21.8915 12.6932 35.119V78.1084ZM25.6562 34.3253C25.6562 28.4391 28.2356 26.1904 32.4022 26.1904C36.5028 26.1904 39.1483 28.4391 39.1483 34.3253V78.9021C39.1483 84.7883 36.5689 87.037 32.4022 87.037C28.3017 87.037 25.6562 84.7883 25.6562 78.9021V34.3253Z" fill="#0095DA"/>
<path d="M195.034 111.376L185.709 135.185H202.706L199.995 127.249H197.68L199.267 121.958C200.788 126.389 202.309 130.754 203.831 135.185H213.487L203.169 111.376H195.034ZM168.315 111.31H159.122V135.185H168.645V129.497L164.082 122.09V120.172L173.473 135.185H183.13V111.31H173.606V117.526L178.169 124.802V126.72L168.315 111.31ZM77.7063 111.31H68.5132V135.185H78.037V129.497L73.4735 122.09V120.172L82.865 135.185H92.5211V111.31H82.9973V117.526L87.5608 124.802V126.72L77.7063 111.31ZM108.791 135.847C116 135.847 121.82 130.159 121.82 123.214C121.82 116.27 116 110.648 108.791 110.648C101.582 110.648 95.6957 116.27 95.6957 123.214C95.6957 130.225 101.582 135.847 108.791 135.847ZM105.418 123.28C105.418 121.429 106.939 119.907 108.791 119.907C110.643 119.907 112.23 121.429 112.23 123.28C112.23 125.132 110.709 126.653 108.791 126.653C106.873 126.653 105.418 125.132 105.418 123.28ZM125.193 135.185H143.447V126.587H134.651V111.31H125.127V135.185H125.193ZM155.749 135.185V111.31H146.82V135.185H155.749Z" stroke="#0095DA" stroke-width="3.2988" stroke-miterlimit="22.9256"/>
<path fill-rule="evenodd" clip-rule="evenodd" d="M195.034 111.376L185.709 135.185H202.706L199.995 127.249H197.68L199.267 121.958C200.788 126.389 202.309 130.754 203.831 135.185H213.487L203.169 111.376H195.034ZM168.315 111.31H159.122V135.185H168.645V129.497L164.082 122.09V120.172L173.473 135.185H183.13V111.31H173.606V117.526L178.169 124.802V126.72L168.315 111.31ZM77.7063 111.31H68.5132V135.185H78.037V129.497L73.4735 122.09V120.172L82.865 135.185H92.5211V111.31H82.9973V117.526L87.5608 124.802V126.72L77.7063 111.31ZM108.791 135.847C116 135.847 121.82 130.159 121.82 123.214C121.82 116.27 116 110.648 108.791 110.648C101.582 110.648 95.6957 116.27 95.6957 123.214C95.6957 130.225 101.582 135.847 108.791 135.847ZM105.418 123.28C105.418 121.429 106.939 119.907 108.791 119.907C110.643 119.907 112.23 121.429 112.23 123.28C112.23 125.132 110.709 126.653 108.791 126.653C106.873 126.653 105.418 125.132 105.418 123.28ZM125.193 135.185H143.447V126.587H134.651V111.31H125.127V135.185H125.193ZM155.749 135.185V111.31H146.82V135.185H155.749Z" fill="white"/>
</svg>
