<svg width="146" height="26" viewBox="0 0 146 26" fill="none" xmlns="http://www.w3.org/2000/svg">
<path fill-rule="evenodd" clip-rule="evenodd" d="M127.034 1.3757L117.709 25.1852H134.706L131.995 17.2487H129.68L131.267 11.9577C132.788 16.3889 134.309 20.754 135.831 25.1852H145.487L135.169 1.3757H127.034ZM100.315 1.30957H91.1216V25.1852H100.645V19.4974L96.0819 12.09V10.172L105.473 25.1852H115.13V1.30957H105.606V7.5265L110.169 14.8016V16.7196L100.315 1.30957ZM9.7063 1.30957H0.513184V25.1852H10.037V19.4974L5.4735 12.09V10.172L14.865 25.1852H24.5211V1.30957H14.9973V7.5265L19.5608 14.8016V16.7196L9.7063 1.30957ZM40.791 25.8466C47.9999 25.8466 53.8201 20.1588 53.8201 13.2143C53.8201 6.26989 47.9999 0.648193 40.791 0.648193C33.582 0.648193 27.6957 6.26989 27.6957 13.2143C27.6957 20.2249 33.582 25.8466 40.791 25.8466ZM37.4179 13.2805C37.4179 11.4286 38.9391 9.90745 40.791 9.90745C42.6428 9.90745 44.2301 11.4286 44.2301 13.2805C44.2301 15.1323 42.7089 16.6535 40.791 16.6535C38.873 16.6535 37.4179 15.1323 37.4179 13.2805ZM57.1931 25.1852H75.447V16.5873H66.6507V1.30957H57.1269V25.1852H57.1931ZM87.7486 25.1852V1.30957H78.82V25.1852H87.7486Z" fill="white"/>
</svg>
