<svg width="258" height="85" viewBox="0 0 258 85" fill="none" xmlns="http://www.w3.org/2000/svg">
<path d="M217.095 13.1164H230.654V83.8835H243.683V13.1164H257.241V1.27773H217.095V13.1164ZM190.442 13.1164H212.863V1.27773H177.479V83.8835H212.863V72.1111H190.442V47.9047H208.233V36.1322H190.442V13.1164ZM137.466 83.8835H171.791V72.1111H150.429V1.27773H137.466V83.8835ZM91.6324 13.1164H105.191V83.8835H118.154V13.1164H131.712V1.27773H91.5662V13.1164H91.6324ZM47.8493 1.27773V64.1745C47.8493 77.4021 54.4631 84.9417 67.2276 84.9417C79.9922 84.9417 86.6059 77.4021 86.6059 64.1745V1.27773H74.3043V65.0343C74.3043 70.9206 71.725 73.037 67.5583 73.037C63.4578 73.037 60.8123 70.9206 60.8123 65.0343V1.27773H47.8493ZM0.693237 64.1084C0.693237 77.3359 7.63768 84.8756 20.4022 84.8756C33.1668 84.8756 40.1112 77.3359 40.1112 64.1084V21.119C40.1112 7.89149 33.1668 0.351807 20.4022 0.351807C7.63768 0.351807 0.693237 7.89149 0.693237 21.119V64.1084ZM13.6562 20.3253C13.6562 14.4391 16.2356 12.1904 20.4022 12.1904C24.5028 12.1904 27.1483 14.4391 27.1483 20.3253V64.9021C27.1483 70.7883 24.5689 73.037 20.4022 73.037C16.3017 73.037 13.6562 70.7883 13.6562 64.9021V20.3253Z" fill="#0095DA"/>
</svg>
