<svg width="59" height="10" viewBox="0 0 59 10" fill="none" xmlns="http://www.w3.org/2000/svg">
<rect width="59" height="10" fill="#1E1E1E"/>
<g clip-path="url(#clip0_144_950)">
<rect width="360" height="3908" transform="translate(-202 -2103)" fill="white"/>
<g clip-path="url(#clip1_144_950)">
<rect width="360" height="328" transform="translate(-202 -318)" fill="#DDF3FF"/>
<g opacity="0.2">
<path d="M145.481 -16.1534H150.905V12.1534H156.116V-16.1534H161.539V-20.8889H145.481V-16.1534ZM134.82 -16.1534H143.788V-20.8889H129.635V12.1534H143.788V7.44444H134.82V-2.2381H141.936V-6.94709H134.82V-16.1534ZM113.629 12.1534H127.36V7.44444H118.815V-20.8889H113.629V12.1534ZM95.2961 -16.1534H100.719V12.1534H105.905V-16.1534H111.328V-20.8889H95.2696V-16.1534H95.2961ZM77.7828 -20.8889V4.26984C77.7828 9.56084 80.4283 12.5767 85.5342 12.5767C90.64 12.5767 93.2855 9.56084 93.2855 4.26984V-20.8889H88.3649V4.61376C88.3649 6.96825 87.3331 7.81481 85.6664 7.81481C84.0262 7.81481 82.968 6.96825 82.968 4.61376V-20.8889H77.7828ZM58.9204 4.24338C58.9204 9.53439 61.6982 12.5503 66.804 12.5503C71.9098 12.5503 74.6876 9.53439 74.6876 4.24338V-12.9524C74.6876 -18.2434 71.9098 -21.2593 66.804 -21.2593C61.6982 -21.2593 58.9204 -18.2434 58.9204 -12.9524V4.24338ZM64.1056 -13.2698C64.1056 -15.6243 65.1373 -16.5238 66.804 -16.5238C68.4442 -16.5238 69.5024 -15.6243 69.5024 -13.2698V4.56085C69.5024 6.91534 68.4707 7.81481 66.804 7.81481C65.1638 7.81481 64.1056 6.91534 64.1056 4.56085V-13.2698Z" fill="#0095DA"/>
<path d="M50.8668 1.03774L47.1366 10.5615H53.9355L52.8509 7.38695H51.925L52.5599 5.27054C53.1684 7.04303 53.7768 8.78906 54.3853 10.5615H58.2477L54.1207 1.03774H50.8668ZM40.1789 1.01129H36.5017V10.5615H40.3112V8.28642L38.4858 5.32346V4.55626L42.2424 10.5615H46.1049V1.01129H42.2953V3.49806L44.1207 6.40811V7.17531L40.1789 1.01129ZM3.93555 1.01129H0.258301V10.5615H4.06782V8.28642L2.24243 5.32346V4.55626L5.99904 10.5615H9.86148V1.01129H6.05195V3.49806L7.87735 6.40811V7.17531L3.93555 1.01129ZM16.3694 10.8261C19.253 10.8261 21.5811 8.55097 21.5811 5.77319C21.5811 2.99541 19.253 0.746737 16.3694 0.746737C13.4858 0.746737 11.1313 2.99541 11.1313 5.77319C11.1313 8.57742 13.4858 10.8261 16.3694 10.8261ZM15.0202 5.79964C15.0202 5.0589 15.6287 4.45044 16.3694 4.45044C17.1101 4.45044 17.7451 5.0589 17.7451 5.79964C17.7451 6.54038 17.1366 7.14885 16.3694 7.14885C15.6022 7.14885 15.0202 6.54038 15.0202 5.79964ZM22.9303 10.5615H30.2318V7.12239H26.7133V1.01129H22.9038V10.5615H22.9303ZM35.1525 10.5615V1.01129H31.581V10.5615H35.1525Z" stroke="#0095DA" stroke-width="3.2988" stroke-miterlimit="22.9256"/>
<path fill-rule="evenodd" clip-rule="evenodd" d="M50.8668 1.03774L47.1366 10.5615H53.9355L52.8509 7.38695H51.925L52.5599 5.27054C53.1684 7.04303 53.7768 8.78906 54.3853 10.5615H58.2477L54.1207 1.03774H50.8668ZM40.1789 1.01129H36.5017V10.5615H40.3112V8.28642L38.4858 5.32346V4.55626L42.2424 10.5615H46.1049V1.01129H42.2953V3.49806L44.1207 6.40811V7.17531L40.1789 1.01129ZM3.93555 1.01129H0.258301V10.5615H4.06782V8.28642L2.24243 5.32346V4.55626L5.99904 10.5615H9.86147V1.01129H6.05195V3.49806L7.87735 6.40811V7.17531L3.93555 1.01129ZM16.3694 10.8261C19.253 10.8261 21.5811 8.55097 21.5811 5.77319C21.5811 2.99541 19.253 0.746737 16.3694 0.746737C13.4858 0.746737 11.1313 2.99541 11.1313 5.77319C11.1313 8.57742 13.4858 10.8261 16.3694 10.8261ZM15.0202 5.79964C15.0202 5.0589 15.6287 4.45044 16.3694 4.45044C17.1101 4.45044 17.7451 5.0589 17.7451 5.79964C17.7451 6.54038 17.1366 7.14885 16.3694 7.14885C15.6022 7.14885 15.0202 6.54038 15.0202 5.79964ZM22.9303 10.5615H30.2318V7.1224H26.7133V1.01129H22.9038V10.5615H22.9303ZM35.1525 10.5615V1.01129H31.581V10.5615H35.1525Z" fill="white"/>
</g>
</g>
</g>
<defs>
<clipPath id="clip0_144_950">
<rect width="360" height="3908" fill="white" transform="translate(-202 -2103)"/>
</clipPath>
<clipPath id="clip1_144_950">
<rect width="360" height="328" fill="white" transform="translate(-202 -318)"/>
</clipPath>
</defs>
</svg>
