<svg width="156" height="25" viewBox="0 0 156 25" fill="none" xmlns="http://www.w3.org/2000/svg">
<rect width="156" height="25" fill="#1E1E1E"/>
<g clip-path="url(#clip0_0_1)">
<rect width="1440" height="4285" transform="translate(-1010 -2490)" fill="white"/>
<g clip-path="url(#clip1_0_1)">
<rect width="1440" height="559" transform="translate(-1010 -534)" fill="#DDF3FF"/>
<g opacity="0.2">
<path d="M135.643 0.776099L125.695 26.1759H143.828L140.935 17.7093H138.466L140.159 12.0649C141.782 16.7921 143.404 21.4487 145.027 26.1759H155.328L144.322 0.776099H135.643ZM107.139 0.70555H97.332V26.1759H107.492V20.1082L102.624 12.206V10.1599L112.642 26.1759H122.943V0.70555H112.784V7.33772L117.652 15.0988V17.1449L107.139 0.70555ZM10.4788 0.70555H0.671631V26.1759H10.8316V20.1082L5.96326 12.206V10.1599L15.9821 26.1759H26.2831V0.70555H16.1232V7.33772L20.9915 15.0988V17.1449L10.4788 0.70555ZM43.6396 26.8815C51.3301 26.8815 57.539 20.8137 57.539 13.4055C57.539 5.99718 51.3301 0 43.6396 0C35.9491 0 29.6698 5.99718 29.6698 13.4055C29.6698 20.8843 35.9491 26.8815 43.6396 26.8815ZM40.0413 13.476C40.0413 11.5005 41.6641 9.8777 43.6396 9.8777C45.6152 9.8777 47.3085 11.5005 47.3085 13.476C47.3085 15.4515 45.6857 17.0743 43.6396 17.0743C41.5935 17.0743 40.0413 15.4515 40.0413 13.476ZM61.1373 26.1759H80.6105V17.0038H71.2267V0.70555H61.0667V26.1759H61.1373ZM93.7337 26.1759V0.70555H84.2088V26.1759H93.7337Z" stroke="#0095DA" stroke-width="3.2988" stroke-miterlimit="22.9256"/>
<path fill-rule="evenodd" clip-rule="evenodd" d="M135.643 0.776099L125.695 26.1759H143.828L140.935 17.7093H138.466L140.159 12.0649C141.782 16.7921 143.404 21.4487 145.027 26.1759H155.328L144.322 0.776099H135.643ZM107.139 0.70555H97.332V26.1759H107.492V20.1082L102.624 12.206V10.1599L112.642 26.1759H122.943V0.70555H112.784V7.33772L117.652 15.0988V17.1449L107.139 0.70555ZM10.4788 0.70555H0.671631V26.1759H10.8316V20.1082L5.96326 12.206V10.1599L15.9821 26.1759H26.2831V0.70555H16.1232V7.33772L20.9915 15.0988V17.1449L10.4788 0.70555ZM43.6396 26.8815C51.3301 26.8815 57.539 20.8137 57.539 13.4055C57.539 5.99718 51.3301 0 43.6396 0C35.9491 0 29.6698 5.99718 29.6698 13.4055C29.6698 20.8843 35.9491 26.8815 43.6396 26.8815ZM40.0413 13.476C40.0413 11.5005 41.6641 9.8777 43.6396 9.8777C45.6152 9.8777 47.3085 11.5005 47.3085 13.476C47.3085 15.4515 45.6857 17.0743 43.6396 17.0743C41.5935 17.0743 40.0413 15.4515 40.0413 13.476ZM61.1373 26.1759H80.6105V17.0038H71.2267V0.70555H61.0667V26.1759H61.1373ZM93.7337 26.1759V0.70555H84.2088V26.1759H93.7337Z" fill="white"/>
</g>
</g>
</g>
<defs>
<clipPath id="clip0_0_1">
<rect width="1440" height="4285" fill="white" transform="translate(-1010 -2490)"/>
</clipPath>
<clipPath id="clip1_0_1">
<rect width="1440" height="559" fill="white" transform="translate(-1010 -534)"/>
</clipPath>
</defs>
</svg>
