<svg width="273" height="84" viewBox="0 0 273 84" fill="none" xmlns="http://www.w3.org/2000/svg">
<rect width="273" height="84" fill="#1E1E1E"/>
<g clip-path="url(#clip0_0_1)">
<rect width="1440" height="4285" transform="translate(-1167 -2431)" fill="white"/>
<g clip-path="url(#clip1_0_1)">
<rect width="1440" height="559" transform="translate(-1167 -475)" fill="#DDF3FF"/>
<g opacity="0.2">
<path d="M230.979 13.9277H245.443V89.4216H259.342V13.9277H273.806V1.29832H230.979V13.9277ZM202.546 13.9277H226.464V1.29832H188.717V89.4216H226.464V76.8628H202.546V51.0396H221.525V38.4808H202.546V13.9277ZM146.031 89.4216H182.649V76.8628H159.86V1.29832H146.031V89.4216ZM97.1365 13.9277H111.6V89.4216H125.429V13.9277H139.893V1.29832H97.0659V13.9277H97.1365ZM50.429 1.29832V68.3961C50.429 82.5072 57.4845 90.5504 71.1017 90.5504C84.7188 90.5504 91.7743 82.5072 91.7743 68.3961V1.29832H78.651V69.3134C78.651 75.5928 75.8994 77.8505 71.4544 77.8505C67.08 77.8505 64.2578 75.5928 64.2578 69.3134V1.29832H50.429ZM0.123291 68.3256C0.123291 82.4366 7.53157 90.4799 21.1487 90.4799C34.7658 90.4799 42.1741 82.4366 42.1741 68.3256V22.4648C42.1741 8.35382 34.7658 0.310547 21.1487 0.310547C7.53157 0.310547 0.123291 8.35382 0.123291 22.4648V68.3256ZM13.9521 21.6182C13.9521 15.3388 16.7037 12.9399 21.1487 12.9399C25.5231 12.9399 28.3453 15.3388 28.3453 21.6182V69.1723C28.3453 75.4517 25.5937 77.8505 21.1487 77.8505C16.7743 77.8505 13.9521 75.4517 13.9521 69.1723V21.6182Z" fill="#0095DA"/>
<path d="M-21.3566 59.7761L-31.3048 85.1759H-13.1722L-16.065 76.7093H-18.5344L-16.8411 71.0649C-15.2183 75.7921 -13.5955 80.4487 -11.9728 85.1759H-1.67173L-12.6783 59.7761H-21.3566ZM-49.8608 59.7056H-59.668V85.1759H-49.5081V79.1082L-54.3763 71.206V69.1599L-44.3575 85.1759H-34.0565V59.7056H-44.2164V66.3377L-39.3481 74.0988V76.1449L-49.8608 59.7056ZM-146.521 59.7056H-156.328V85.1759H-146.168V79.1082L-151.037 71.206V69.1599L-141.018 85.1759H-130.717V59.7056H-140.877V66.3377L-136.009 74.0988V76.1449L-146.521 59.7056ZM-113.36 85.8815C-105.67 85.8815 -99.461 79.8137 -99.461 72.4055C-99.461 64.9972 -105.67 59 -113.36 59C-121.051 59 -127.33 64.9972 -127.33 72.4055C-127.33 79.8843 -121.051 85.8815 -113.36 85.8815ZM-116.959 72.476C-116.959 70.5005 -115.336 68.8777 -113.36 68.8777C-111.385 68.8777 -109.691 70.5005 -109.691 72.476C-109.691 74.4515 -111.314 76.0743 -113.36 76.0743C-115.406 76.0743 -116.959 74.4515 -116.959 72.476ZM-95.8627 85.1759H-76.3895V76.0038H-85.7733V59.7056H-95.9333V85.1759H-95.8627ZM-63.2663 85.1759V59.7056H-72.7912V85.1759H-63.2663Z" stroke="#0095DA" stroke-width="3.2988" stroke-miterlimit="22.9256"/>
</g>
</g>
</g>
<defs>
<clipPath id="clip0_0_1">
<rect width="1440" height="4285" fill="white" transform="translate(-1167 -2431)"/>
</clipPath>
<clipPath id="clip1_0_1">
<rect width="1440" height="559" fill="white" transform="translate(-1167 -475)"/>
</clipPath>
</defs>
</svg>
