<svg width="100" height="32" viewBox="0 0 100 32" fill="none" xmlns="http://www.w3.org/2000/svg">
<rect width="100" height="32" fill="#1E1E1E"/>
<g clip-path="url(#clip0_144_950)">
<rect width="360" height="3908" transform="translate(-260 -2081)" fill="white"/>
<g clip-path="url(#clip1_144_950)">
<rect width="360" height="328" transform="translate(-260 -296)" fill="#DDF3FF"/>
<g opacity="0.2">
<path d="M87.4812 5.84656H92.9045V34.1534H98.1162V5.84656H103.539V1.11111H87.4812V5.84656ZM76.8199 5.84656H85.7881V1.11111H71.6347V34.1534H85.7881V29.4444H76.8199V19.7619H83.9363V15.0529H76.8199V5.84656ZM55.6294 34.1534H69.3596V29.4444H60.8146V1.11111H55.6294V34.1534ZM37.2961 5.84656H42.7193V34.1534H47.9045V5.84656H53.3278V1.11111H37.2696V5.84656H37.2961ZM19.7828 1.11111V26.2698C19.7828 31.5608 22.4283 34.5767 27.5342 34.5767C32.64 34.5767 35.2855 31.5608 35.2855 26.2698V1.11111H30.3649V26.6138C30.3649 28.9683 29.3331 29.8148 27.6664 29.8148C26.0262 29.8148 24.968 28.9683 24.968 26.6138V1.11111H19.7828ZM0.92041 26.2434C0.92041 31.5344 3.69819 34.5503 8.80401 34.5503C13.9098 34.5503 16.6876 31.5344 16.6876 26.2434V9.04762C16.6876 3.75661 13.9098 0.740741 8.80401 0.740741C3.69819 0.740741 0.92041 3.75661 0.92041 9.04762V26.2434ZM6.10559 8.73016C6.10559 6.37566 7.13734 5.47619 8.80401 5.47619C10.4442 5.47619 11.5024 6.37566 11.5024 8.73016V26.5608C11.5024 28.9153 10.4707 29.8148 8.80401 29.8148C7.1638 29.8148 6.10559 28.9153 6.10559 26.5608V8.73016Z" fill="#0095DA"/>
<path d="M-7.13324 23.0377L-10.8634 32.5615H-4.06446L-5.14911 29.3869H-6.07504L-5.44011 27.2705C-4.83165 29.043 -4.22318 30.7891 -3.61472 32.5615H0.247716L-3.87927 23.0377H-7.13324ZM-17.8211 23.0113H-21.4983V32.5615H-17.6888V30.2864L-19.5142 27.3235V26.5563L-15.7576 32.5615H-11.8951V23.0113H-15.7047V25.4981L-13.8793 28.4081V29.1753L-17.8211 23.0113ZM-54.0645 23.0113H-57.7417V32.5615H-53.9322V30.2864L-55.7576 27.3235V26.5563L-52.001 32.5615H-48.1385V23.0113H-51.948V25.4981L-50.1227 28.4081V29.1753L-54.0645 23.0113ZM-41.6306 32.8261C-38.747 32.8261 -36.4189 30.551 -36.4189 27.7732C-36.4189 24.9954 -38.747 22.7467 -41.6306 22.7467C-44.5142 22.7467 -46.8687 24.9954 -46.8687 27.7732C-46.8687 30.5774 -44.5142 32.8261 -41.6306 32.8261ZM-42.9798 27.7996C-42.9798 27.0589 -42.3713 26.4504 -41.6306 26.4504C-40.8899 26.4504 -40.2549 27.0589 -40.2549 27.7996C-40.2549 28.5404 -40.8634 29.1489 -41.6306 29.1489C-42.3978 29.1489 -42.9798 28.5404 -42.9798 27.7996ZM-35.0697 32.5615H-27.7682V29.1224H-31.2867V23.0113H-35.0962V32.5615H-35.0697ZM-22.8475 32.5615V23.0113H-26.419V32.5615H-22.8475Z" stroke="#0095DA" stroke-width="3.2988" stroke-miterlimit="22.9256"/>
<path fill-rule="evenodd" clip-rule="evenodd" d="M-7.13324 23.0377L-10.8634 32.5615H-4.06446L-5.14911 29.3869H-6.07504L-5.44011 27.2705C-4.83165 29.043 -4.22318 30.7891 -3.61472 32.5615H0.247716L-3.87927 23.0377H-7.13324ZM-17.8211 23.0113H-21.4983V32.5615H-17.6888V30.2864L-19.5142 27.3235V26.5563L-15.7576 32.5615H-11.8951V23.0113H-15.7047V25.4981L-13.8793 28.4081V29.1753L-17.8211 23.0113ZM-54.0645 23.0113H-57.7417V32.5615H-53.9322V30.2864L-55.7576 27.3235V26.5563L-52.001 32.5615H-48.1385V23.0113H-51.948V25.4981L-50.1227 28.4081V29.1753L-54.0645 23.0113ZM-41.6306 32.8261C-38.747 32.8261 -36.4189 30.551 -36.4189 27.7732C-36.4189 24.9954 -38.747 22.7467 -41.6306 22.7467C-44.5142 22.7467 -46.8687 24.9954 -46.8687 27.7732C-46.8687 30.5774 -44.5142 32.8261 -41.6306 32.8261ZM-42.9798 27.7996C-42.9798 27.0589 -42.3713 26.4504 -41.6306 26.4504C-40.8899 26.4504 -40.2549 27.0589 -40.2549 27.7996C-40.2549 28.5404 -40.8634 29.1489 -41.6306 29.1489C-42.3978 29.1489 -42.9798 28.5404 -42.9798 27.7996ZM-35.0697 32.5615H-27.7682V29.1224H-31.2867V23.0113H-35.0962V32.5615H-35.0697ZM-22.8475 32.5615V23.0113H-26.419V32.5615H-22.8475Z" fill="white"/>
</g>
</g>
</g>
<defs>
<clipPath id="clip0_144_950">
<rect width="360" height="3908" fill="white" transform="translate(-260 -2081)"/>
</clipPath>
<clipPath id="clip1_144_950">
<rect width="360" height="328" fill="white" transform="translate(-260 -296)"/>
</clipPath>
</defs>
</svg>
