<svg width="141" height="111" viewBox="0 0 141 111" fill="none" xmlns="http://www.w3.org/2000/svg">
<path d="M-13 142L82.6 1.99999H116.4L20.8 142H-13ZM0.400001 78C-6.66667 78 -13 76.5333 -18.6 73.6C-24.2 70.5333 -28.6667 66.0667 -32 60.2C-35.2 54.3333 -36.8 47.2667 -36.8 39C-36.8 30.7333 -35.2 23.7333 -32 18C-28.6667 12.1333 -24.2 7.66666 -18.6 4.59999C-13 1.53333 -6.66667 -7.62939e-06 0.400001 -7.62939e-06C7.46667 -7.62939e-06 13.8 1.53333 19.4 4.59999C25 7.66666 29.4 12.1333 32.6 18C35.9333 23.7333 37.6 30.7333 37.6 39C37.6 47.2667 35.9333 54.3333 32.6 60.2C29.4 66.0667 25 70.5333 19.4 73.6C13.8 76.5333 7.46667 78 0.400001 78ZM0.400001 56.4C2.66667 56.4 4.66667 55.2 6.4 52.8C8.26667 50.2667 9.2 45.6667 9.2 39C9.2 32.3333 8.26667 27.8 6.4 25.4C4.66667 22.8667 2.66667 21.6 0.400001 21.6C-1.73333 21.6 -3.73333 22.8667 -5.6 25.4C-7.46667 27.8 -8.4 32.3333 -8.4 39C-8.4 45.6667 -7.46667 50.2667 -5.6 52.8C-3.73333 55.2 -1.73333 56.4 0.400001 56.4ZM103 144C95.9333 144 89.6 142.533 84 139.6C78.4 136.533 73.9333 132.067 70.6 126.2C67.4 120.333 65.8 113.267 65.8 105C65.8 96.7333 67.4 89.7333 70.6 84C73.9333 78.1333 78.4 73.6667 84 70.6C89.6 67.5333 95.9333 66 103 66C110.067 66 116.4 67.5333 122 70.6C127.6 73.6667 132 78.1333 135.2 84C138.533 89.7333 140.2 96.7333 140.2 105C140.2 113.267 138.533 120.333 135.2 126.2C132 132.067 127.6 136.533 122 139.6C116.4 142.533 110.067 144 103 144ZM103 122.4C105.267 122.4 107.267 121.2 109 118.8C110.867 116.267 111.8 111.667 111.8 105C111.8 98.3333 110.867 93.8 109 91.4C107.267 88.8667 105.267 87.6 103 87.6C100.867 87.6 98.8667 88.8667 97 91.4C95.1333 93.8 94.2 98.3333 94.2 105C94.2 111.667 95.1333 116.267 97 118.8C98.8667 121.2 100.867 122.4 103 122.4Z" fill="white"/>
</svg>
