<svg width="203" height="202" viewBox="0 0 203 202" fill="none" xmlns="http://www.w3.org/2000/svg">
<path d="M-12.2 199L121.64 2.99999H168.96L35.12 199H-12.2ZM6.56 109.4C-3.33333 109.4 -12.2 107.347 -20.04 103.24C-27.88 98.9467 -34.1333 92.6933 -38.8 84.48C-43.28 76.2667 -45.52 66.3733 -45.52 54.8C-45.52 43.2267 -43.28 33.4267 -38.8 25.4C-34.1333 17.1867 -27.88 10.9333 -20.04 6.63999C-12.2 2.34666 -3.33333 0.199989 6.56 0.199989C16.4533 0.199989 25.32 2.34666 33.16 6.63999C41 10.9333 47.16 17.1867 51.64 25.4C56.3067 33.4267 58.64 43.2267 58.64 54.8C58.64 66.3733 56.3067 76.2667 51.64 84.48C47.16 92.6933 41 98.9467 33.16 103.24C25.32 107.347 16.4533 109.4 6.56 109.4ZM6.56 79.16C9.73334 79.16 12.5333 77.48 14.96 74.12C17.5733 70.5733 18.88 64.1333 18.88 54.8C18.88 45.4667 17.5733 39.12 14.96 35.76C12.5333 32.2133 9.73334 30.44 6.56 30.44C3.57333 30.44 0.773335 32.2133 -1.84 35.76C-4.45333 39.12 -5.76 45.4667 -5.76 54.8C-5.76 64.1333 -4.45333 70.5733 -1.84 74.12C0.773335 77.48 3.57333 79.16 6.56 79.16ZM150.2 201.8C140.307 201.8 131.44 199.747 123.6 195.64C115.76 191.347 109.507 185.093 104.84 176.88C100.36 168.667 98.12 158.773 98.12 147.2C98.12 135.627 100.36 125.827 104.84 117.8C109.507 109.587 115.76 103.333 123.6 99.04C131.44 94.7467 140.307 92.6 150.2 92.6C160.093 92.6 168.96 94.7467 176.8 99.04C184.64 103.333 190.8 109.587 195.28 117.8C199.947 125.827 202.28 135.627 202.28 147.2C202.28 158.773 199.947 168.667 195.28 176.88C190.8 185.093 184.64 191.347 176.8 195.64C168.96 199.747 160.093 201.8 150.2 201.8ZM150.2 171.56C153.373 171.56 156.173 169.88 158.6 166.52C161.213 162.973 162.52 156.533 162.52 147.2C162.52 137.867 161.213 131.52 158.6 128.16C156.173 124.613 153.373 122.84 150.2 122.84C147.213 122.84 144.413 124.613 141.8 128.16C139.187 131.52 137.88 137.867 137.88 147.2C137.88 156.533 139.187 162.973 141.8 166.52C144.413 169.88 147.213 171.56 150.2 171.56Z" fill="white"/>
</svg>
