<svg width="121" height="104" viewBox="0 0 121 104" fill="none" xmlns="http://www.w3.org/2000/svg">
<path d="M-33 102L62.6 -38H96.4L0.800004 102H-33ZM-19.6 38C-26.6667 38 -33 36.5333 -38.6 33.6C-44.2 30.5333 -48.6667 26.0667 -52 20.2C-55.2 14.3333 -56.8 7.26666 -56.8 -1.00001C-56.8 -9.26667 -55.2 -16.2667 -52 -22C-48.6667 -27.8667 -44.2 -32.3333 -38.6 -35.4C-33 -38.4667 -26.6667 -40 -19.6 -40C-12.5333 -40 -6.2 -38.4667 -0.599996 -35.4C5 -32.3333 9.4 -27.8667 12.6 -22C15.9333 -16.2667 17.6 -9.26667 17.6 -1.00001C17.6 7.26666 15.9333 14.3333 12.6 20.2C9.4 26.0667 5 30.5333 -0.599996 33.6C-6.2 36.5333 -12.5333 38 -19.6 38ZM-19.6 16.4C-17.3333 16.4 -15.3333 15.2 -13.6 12.8C-11.7333 10.2667 -10.8 5.66666 -10.8 -1.00001C-10.8 -7.66667 -11.7333 -12.2 -13.6 -14.6C-15.3333 -17.1333 -17.3333 -18.4 -19.6 -18.4C-21.7333 -18.4 -23.7333 -17.1333 -25.6 -14.6C-27.4667 -12.2 -28.4 -7.66667 -28.4 -1.00001C-28.4 5.66666 -27.4667 10.2667 -25.6 12.8C-23.7333 15.2 -21.7333 16.4 -19.6 16.4ZM83 104C75.9333 104 69.6 102.533 64 99.6C58.4 96.5333 53.9333 92.0667 50.6 86.2C47.4 80.3333 45.8 73.2667 45.8 65C45.8 56.7333 47.4 49.7333 50.6 44C53.9333 38.1333 58.4 33.6667 64 30.6C69.6 27.5333 75.9333 26 83 26C90.0667 26 96.4 27.5333 102 30.6C107.6 33.6667 112 38.1333 115.2 44C118.533 49.7333 120.2 56.7333 120.2 65C120.2 73.2667 118.533 80.3333 115.2 86.2C112 92.0667 107.6 96.5333 102 99.6C96.4 102.533 90.0667 104 83 104ZM83 82.4C85.2667 82.4 87.2667 81.2 89 78.8C90.8667 76.2667 91.8 71.6667 91.8 65C91.8 58.3333 90.8667 53.8 89 51.4C87.2667 48.8667 85.2667 47.6 83 47.6C80.8667 47.6 78.8667 48.8667 77 51.4C75.1333 53.8 74.2 58.3333 74.2 65C74.2 71.6667 75.1333 76.2667 77 78.8C78.8667 81.2 80.8667 82.4 83 82.4Z" fill="white"/>
</svg>
