<svg width="16" height="16" viewBox="0 0 16 16" fill="none" xmlns="http://www.w3.org/2000/svg">
<path d="M14.8314 13.1206L11.9018 10.1909C11.7553 10.0737 11.5795 9.98584 11.4037 9.98584H10.935C11.726 8.96045 12.224 7.67139 12.224 6.23584C12.224 2.896 9.47012 0.14209 6.13027 0.14209C2.76113 0.14209 0.0365233 2.896 0.0365233 6.23584C0.0365233 9.60498 2.76113 12.3296 6.13027 12.3296C7.53652 12.3296 8.82559 11.8608 9.88027 11.0405V11.5386C9.88027 11.7144 9.93887 11.8901 10.0854 12.0366L12.9857 14.937C13.2787 15.23 13.7182 15.23 13.9818 14.937L14.8021 14.1167C15.0951 13.853 15.0951 13.4136 14.8314 13.1206ZM6.13027 9.98584C4.0502 9.98584 2.38027 8.31592 2.38027 6.23584C2.38027 4.18506 4.0502 2.48584 6.13027 2.48584C8.18105 2.48584 9.88027 4.18506 9.88027 6.23584C9.88027 8.31592 8.18105 9.98584 6.13027 9.98584Z" fill="#1D8BC5"/>
</svg>
