<svg width="273" height="84" viewBox="0 0 273 84" fill="none" xmlns="http://www.w3.org/2000/svg">
<path d="M230.979 13.9277H245.443V89.4216H259.342V13.9277H273.806V1.29832H230.979V13.9277ZM202.546 13.9277H226.464V1.29832H188.717V89.4216H226.464V76.8628H202.546V51.0396H221.525V38.4808H202.546V13.9277ZM146.031 89.4216H182.649V76.8628H159.86V1.29832H146.031V89.4216ZM97.1365 13.9277H111.6V89.4216H125.429V13.9277H139.893V1.29832H97.0659V13.9277H97.1365ZM50.429 1.29832V68.3961C50.429 82.5072 57.4845 90.5504 71.1017 90.5504C84.7188 90.5504 91.7743 82.5072 91.7743 68.3961V1.29832H78.651V69.3134C78.651 75.5928 75.8994 77.8505 71.4544 77.8505C67.08 77.8505 64.2578 75.5928 64.2578 69.3134V1.29832H50.429ZM0.123291 68.3256C0.123291 82.4366 7.53157 90.4799 21.1487 90.4799C34.7658 90.4799 42.1741 82.4366 42.1741 68.3256V22.4648C42.1741 8.35382 34.7658 0.310547 21.1487 0.310547C7.53157 0.310547 0.123291 8.35382 0.123291 22.4648V68.3256ZM13.9521 21.6182C13.9521 15.3388 16.7037 12.9399 21.1487 12.9399C25.5231 12.9399 28.3453 15.3388 28.3453 21.6182V69.1723C28.3453 75.4517 25.5937 77.8505 21.1487 77.8505C16.7743 77.8505 13.9521 75.4517 13.9521 69.1723V21.6182Z" fill="#0095DA"/>
</svg>
