<svg width="14" height="50" viewBox="0 0 14 50" fill="none" xmlns="http://www.w3.org/2000/svg">
<rect width="14" height="50" fill="#1D8BC5"/>
<path d="M5.69775 21.2083L9.20817 24.7083C9.24984 24.75 9.27928 24.7951 9.2965 24.8437C9.314 24.8924 9.32275 24.9444 9.32275 25C9.32275 25.0556 9.314 25.1076 9.2965 25.1562C9.27928 25.2049 9.24984 25.25 9.20817 25.2917L5.69775 28.8021C5.60053 28.8993 5.479 28.9479 5.33317 28.9479C5.18734 28.9479 5.06234 28.8958 4.95817 28.7917C4.854 28.6875 4.80192 28.566 4.80192 28.4271C4.80192 28.2882 4.854 28.1667 4.95817 28.0625L8.02067 25L4.95817 21.9375C4.86095 21.8403 4.81234 21.7206 4.81234 21.5783C4.81234 21.4358 4.86442 21.3125 4.96859 21.2083C5.07275 21.1042 5.19428 21.0521 5.33317 21.0521C5.47206 21.0521 5.59359 21.1042 5.69775 21.2083Z" fill="white"/>
</svg>
