<svg width="6" height="8" viewBox="0 0 6 8" fill="none" xmlns="http://www.w3.org/2000/svg">
<path d="M4.30225 7.79167L0.791829 4.29167C0.750163 4.25 0.720718 4.20486 0.703496 4.15625C0.685996 4.10764 0.677246 4.05556 0.677246 4C0.677246 3.94445 0.685996 3.89236 0.703496 3.84375C0.720718 3.79514 0.750163 3.75 0.791829 3.70834L4.30225 0.197919C4.39947 0.100697 4.521 0.0520859 4.66683 0.0520859C4.81266 0.0520859 4.93766 0.104169 5.04183 0.208336C5.146 0.312503 5.19808 0.43403 5.19808 0.572919C5.19808 0.711808 5.146 0.833336 5.04183 0.937503L1.97933 4L5.04183 7.0625C5.13905 7.15972 5.18766 7.27945 5.18766 7.42167C5.18766 7.56417 5.13558 7.6875 5.03141 7.79167C4.92725 7.89584 4.80572 7.94792 4.66683 7.94792C4.52794 7.94792 4.40641 7.89584 4.30225 7.79167Z" fill="#1D8BC5"/>
</svg>
