<svg width="162" height="79" viewBox="0 0 162 79" fill="none" xmlns="http://www.w3.org/2000/svg">
<path fill-rule="evenodd" clip-rule="evenodd" d="M0 23.6576C0 26.7992 0.480509 29.9106 1.74539 32.8178C3.06575 35.8526 4.6447 38.3263 6.57861 40.7041C6.95684 41.1691 8.44367 42.7977 8.5358 43.0543C8.82289 43.8543 8.64453 50.2215 8.64187 51.5879L34.6295 66.6705L39.6854 64.0281C39.9508 64.0113 40.2694 64.1024 40.7782 64.3428C53.3737 70.2928 73.0261 75.06 87.1779 76.8639C97.5807 78.1898 108.578 78.4597 118.993 77.2518C132.491 75.6855 155.072 69.7529 154.957 53.0241C154.926 48.5423 153.666 47.2563 153.111 44.7447L147.673 44.7568C148.315 46.6932 149.674 48.4555 149.971 51.5816C150.736 59.6404 144.909 64.0828 138.062 67.38C120.611 75.7829 92.2551 73.4899 73.4768 69.6218C65.784 68.0373 59.1444 66.085 51.8973 63.4956C50.9367 63.1525 46.1101 61.5184 45.2611 60.82L60.6043 51.8559L60.6048 44.5919L55.6772 44.6066L55.6674 48.9208L38.9309 58.2486L35.2116 56.4179L35.0584 61.2123L13.3493 48.6656L18.3367 45.3522L13.5769 40.7066L13.5773 24.7236C15.187 23.7173 34.2937 12.7194 34.5016 12.6976C35.0083 12.6448 48.0985 20.3183 50.3031 21.599C52.048 22.6123 53.894 23.5808 55.5814 24.7122L55.6871 29.1027L60.5818 29.1516L60.6053 21.9685C59.8745 21.3029 34.7277 6.98264 34.6615 6.98137C33.8357 6.96636 11.8213 20.3307 8.65087 21.8553L8.64406 35.0495C7.82453 34.3759 6.93334 32.3928 6.46543 31.3787C1.01991 19.5757 10.8515 12.6038 21.658 8.82515C33.6399 4.63534 50.3375 4.3266 63.7602 5.67509C83.8609 7.6948 100.892 12.8226 118.36 21.029C122.527 22.9869 128.044 26.1162 131.766 28.8468C131.963 28.9919 131.877 28.9217 132.037 29.0499L139.933 28.9706C138.552 27.6311 135.163 25.2644 133.632 24.2319C106.144 5.6867 59.0489 -4.97774 27.0456 2.31324C16.4531 4.72641 3.34539 9.82884 0.500661 21.1037C0.295144 21.9178 0.276457 22.9804 0 23.6576Z" fill="white"/>
<path fill-rule="evenodd" clip-rule="evenodd" d="M65.5487 42.6945L69.5552 42.6979L69.5746 33.4675L70.6902 38.129L71.8509 42.6923L76.258 42.6819L78.5152 33.2567L78.4931 42.6935L82.4928 42.696L82.5401 30.0278L76.1354 30.0453L74.154 39.7398L71.8055 30.0707L65.5667 30.0564L65.5487 42.6945ZM44.7347 42.6977L48.7894 42.6908L48.8194 37.8168L52.5704 37.7983L52.5825 42.6918L56.6122 42.6921L56.6662 30.0302L52.5699 30.0755L52.5786 34.3572L48.8116 34.3538L48.815 30.0489L44.7265 30.0411L44.7347 42.6977ZM96.6453 42.7265L107.001 42.6969L106.981 39.7186L100.795 39.7114L100.763 37.6815L105.845 37.666L105.85 34.9225L100.799 34.8981L100.809 33.1066L106.754 33.1001L106.782 30.0397L96.6414 30.0409L96.6453 42.7265ZM42.9346 37.8036L39.1852 37.8175C38.7753 38.8754 38.4629 40.252 36.3688 39.8519C33.7785 39.3566 33.9498 34.483 35.7931 33.1384C36.6761 32.4944 37.9682 32.8374 38.5654 33.7091C38.8063 34.0606 38.979 34.4886 39.1852 34.8562L42.8626 34.8554C42.0373 27.1831 30.4397 28.2495 30.3457 36.1964C30.3018 39.9052 32.2842 42.5523 35.7025 42.97C39.8846 43.481 42.5587 41.5597 42.9346 37.8036ZM112.367 36.1954L108.146 42.7192L112.599 42.7371L114.511 38.4908L116.735 42.7345L121.082 42.7335L116.972 36.2479L120.979 30.1065L116.695 30.0327L114.889 33.8132L113.228 30.0564L108.505 30.0421L112.367 36.1954ZM137.269 33.3545L140.866 33.3991L140.935 42.6903L144.983 42.6977L145.044 33.3926L148.642 33.393L148.649 30.0385L137.278 30.0421L137.269 33.3545ZM83.9069 33.3855L87.5021 33.4027L87.5593 42.7051L91.6118 42.6994L91.637 33.4095L95.2855 33.3822L95.2891 30.0397H83.917L83.9069 33.3855ZM128.178 42.6807L137.251 42.7357L137.265 39.3353L132.258 39.3448L132.26 30.0489L128.171 30.0297L128.178 42.6807ZM59.0574 42.6996L63.1423 42.6921L63.1692 30.0567L59.0612 30.0375L59.0574 42.6996ZM154.089 39.4989C156.826 39.5369 157.819 39.3155 157.861 36.4079C157.902 33.5772 156.876 33.1342 154.101 33.2932L154.089 39.4989ZM150.011 42.6967C151.914 42.8442 156.77 42.884 158.353 42.3327C163.153 40.6603 162.939 32.867 159.32 30.7523C157.482 29.6784 152.574 29.9905 150.005 30.069L150.011 42.6967Z" fill="white"/>
<path fill-rule="evenodd" clip-rule="evenodd" d="M14.5583 25.1219L19.8104 27.5972L34.4941 19.2049L34.4607 13.5025L14.5583 25.1219Z" fill="white"/>
<path fill-rule="evenodd" clip-rule="evenodd" d="M14.5471 48.7153L34.3172 60.1118L34.5183 54.8701L19.1462 45.8032L14.5471 48.7153Z" fill="white"/>
</svg>
