<svg width="1217" height="788" viewBox="0 0 1217 788" fill="none" xmlns="http://www.w3.org/2000/svg">
<path fill-rule="evenodd" clip-rule="evenodd" d="M63.3301 1.50973L61.7802 0L61.1428 2.14918L60.3492 0.424998L57.9869 3.27944L55.7784 2.00212L56.1298 5.27075L54.1441 7.78311L54.7049 8.68935L52.2701 9.14254L53.9232 11.6383L52.7624 12.3388L51.4208 11.444L49.7315 14.5669L52.7472 16.7345L52.7264 19.0477L51.1499 18.5131L49.2468 30.3233L51.1246 33.0712L50.1869 38.1882L51.8077 39.642L51.37 41.6348L44.3008 41.8576L43.3285 44.1003L40.1971 43.2648L34.1284 45.0615L36.1812 49.9608L33.6129 53.3188L17.0524 54.2487L16.1565 56.099L10.0448 57.8251L11.1948 61.2462L9.82805 63.7894L9.77227 75.34L5.96455 78.922L7.12532 83.7994L5.59924 94.1814L0 109.94L4.27903 120.111L8.47874 124.257L7.22362 132.015L8.89217 134.49L9.84629 140.779L13.1618 145.797L18.4648 150.099L23.7126 151.867L26.0005 156.107L23.7315 160.759L26.5211 166.483L25.5968 176.486L34.7749 201.539L38.283 203.729L42.9689 203.784L47.3221 210.847L59.0413 213.22L60.9923 219.927L62.9768 221.975L72.7374 222.531L79.9402 226.581L80.6265 230.069L85.6061 235.684L91.4902 239.017L95.007 247.703L95.7271 253.61L99.5677 255.909L99.8094 258.354L105.214 266.793L113.636 272.808L113.828 272.704L120.6 272.65L126.058 275.833L122.217 282.469L124.406 285.005L121.651 296.823L115.74 301.97L109.657 304.627L104.991 316.944L98.6581 320.266L95.5765 325.254L83.0458 331.012L82.8743 337.274L80.2434 340.311L82.1511 344.641L77.3059 354.118L74.91 356.462L69.6306 356.039L68.1665 357.843L66.4624 356.65L63.4314 360.879L62.5012 358.974L58.8976 357.141L55.6627 358.337L52.3219 354.36L44.3463 354.776L42.1926 358.934L42.2385 361.734L34.8861 357.645L31.7887 359.562L31.0752 363.873L29.3547 365.832L23.3528 370.647L16.4898 372.858L16.7978 378.004L19.6529 381.765L20.4397 385.56L28.0557 395.245L27.5264 399.506L25.8768 399.799L22.3632 407.34L19.8338 408.672L22.8887 411.573L23.0145 414.013L18.9632 419.89L21.1256 421.996L16.0919 435.25L15.7599 441.257L22.0832 442.766L27.4096 449.35L32.0601 451.775L36.7433 456.543L39.0371 463.67L36.2071 468.041L34.4742 478.471L32.1098 480.864L31.626 484.683L23.5452 486.044L23.9322 489.887L19.8836 494.837L20.478 499.056L18.7775 501.883L15.4189 504.215L13.939 502.319L9.71396 502.288L8.45313 503.836L1.88588 504.86L0.803012 507.713L4.50502 509.029L8.55751 513.57L8.91903 516.241L13.4288 522.598H15.2406L18.1052 526.181L22.392 537.115L28.5483 539.234L30.5761 549.961L34.2435 553.63L37.4541 554.803L41.2636 559.315L45.486 561.133L47.6508 564.154L52.9861 565.119L62.3808 573.022L70.0065 572.409L73.8584 577.816L82.3459 580.026L86.6739 578.131L91.4823 584.165L96.9206 583.273L99.1637 584.121L99.6941 585.5L99.1478 588.597L101.072 590.522L101.397 595.616L100.771 606.163L104.701 611.453L106.194 621.79L108.938 622.023L112.806 629.275L113.649 637.096L118.347 644.677L118.168 648.501L127.122 650.384L131.244 659.807L131.591 664.429L123.808 674.302L121.497 678.808L121.971 680.606L117.261 680.95L114.973 684.817L116.272 688.716L115.844 696.851L118.467 699.043L119.861 703.361L119.356 707.75L117.004 709.955L119.329 715.191L119.148 718.094L117.1 720.541L117.651 725.532L118.805 726.083L118.302 728.76L120.993 733.183L115.819 740.542L118.689 746.74L117.673 750.092L118.319 756.635L115.205 757.394L112.476 760.514L113.646 761.51L126.889 764.023L130.93 762.694L141.862 767.911L152.503 768.168L165.872 765.173L170.791 758.611L169.943 753.745L170.922 751.934L175.766 750.079L180.642 745.478L187.75 745.61L191.819 754.907L204.085 745.194L207.358 745.804L210.583 744.009L219.831 745.904L227.69 744.414L232.06 748.898L237.884 748.082L241.4 751.351L245.215 751.854L251.152 750.958L252.023 746.69L256.597 743.034L260.373 744.502L267.307 743.599L272.846 744.951L274.33 746.799L279.206 741.403L281.327 736.042L291.128 735.173L292.354 732.72L296.364 731.704L298.86 732.604L302.123 730.365L303.323 724.993L306.127 726.694L308.573 732.49L314.632 735.791L323.108 728.382L324.602 731.526L329.643 731.893L334.641 727.93L332.126 722.663L332.456 712.889L334.502 711.445L335.358 708.738L339.734 706.773L340.444 708.423L345.077 709.065L345.664 710.886L350.488 710.3L350.889 712.08L353.261 713.752L352.916 715.291L356.184 715.819L357.949 714.052L357.494 711.235L360.942 706.61L364.852 707.176L367.048 703.339L370.925 700.892L372.818 701.993L371.994 704.41L378.139 709.603L377.121 712.47L378.649 716.993L385.87 713.002L391.271 715.417L394.939 710.273L398.529 709.57L400.426 712.073L405.198 712.3L407.564 714.277L410.149 712.329L410.403 708.258L412.442 706.348L422.408 702.25L423.461 702.953L423.429 705.329L425.472 704.901L427.064 706.382L425.71 708.874L428.895 715.048L428.394 718.643L431.034 725.811L435.57 728.772L435.763 734.621L438.462 738.855L447.179 736.574L448.336 737.256L447.413 741.457L452.742 739.243L454.774 740.741L461.421 741.51L464.656 750.25L475.983 759.438L479.075 757.021L480.376 748.577L479.715 745.554L489.87 747.841L491.701 747.547L494.085 744.095L497.455 743.592L502.926 749.065L510.203 751.863L524.763 754.648L529.394 760.704L534.002 762.62L536.905 761.142L540.47 765.492L547.468 767.924L549.142 768.738L549.793 771.514L554.245 773.192L557.183 776.052L559.359 784.701L565.79 785.425L570.05 788L572.63 785.186L579.744 786.247L585.899 781.516L589.033 782.314L595.176 779.889L597.833 780.26L598.666 777.64L606.952 774.379L612.063 774.732L617.895 777.246L620.607 769.019L623.631 766.865L633.714 770.237L642.436 767.684L647.286 769.517L652.207 773.768L654.86 766.74L659.699 767.284L662.703 764.975L666.091 765.836L668.353 762.79L673.666 761.716L674.888 759.446L680.428 764.158L683.588 764.005L683.247 767.597L686.327 770.017L691.273 769.188L696.874 766.022L702.969 766.543L708.911 764.601L710.68 760.078L715.881 758.344L726.125 759.34L728.185 756.772L734.637 757.001L735.84 751.814L738.099 751.106L740.205 747.367L741.199 742.952L740.136 739.736L742.118 737.075L748.677 736.103L743.287 728.199L740.066 726.794L739.224 724.164L739.338 722.748L742.505 721.234L742.853 717.75L745.448 714.469L743.789 704.955L738.074 704.32L739.209 691.616L736.149 689.15L735.91 684.183L732.526 684.888L731.679 686.637L727.846 685.904L726.737 681.993L723.358 680.68L721.181 670.31L722.704 665.259L725.575 663.49L730.925 664.416L733.164 659.761L742.203 655.052L743.801 657.27L747.676 658.826L751.423 659.216L753.5 657.45L757.662 661.881L764.022 664.718L768.655 665.476L772.976 663.763L779.612 664.904L773.218 657.75L773.323 654.289L780.325 637.288L784.039 635.918L814.067 635.805L816.349 629.794L819.096 627.475L819.317 624.443L822.352 622.864L819.679 619.22L822.766 614.503L818.605 608.786L829.499 598.828L830.57 595.411L838.317 598.909L847.518 598.262L855.598 600.976L856.691 598.132L862.382 592.784L866.688 596.423L873.175 598.053L874.578 594.589L878.292 592.455L885.236 593.161L889.688 589.547L896.273 590.598L900.844 584.155L900.316 579.906L905.211 579.478L909.329 573.668L908.417 568.676L910.665 568.208L910.991 568.646L917.095 565.897L924.797 567.633L929.35 572.732L933.638 571.445L936.63 573.27L938.928 572.042L939.744 573.7L943.482 574.768L942.856 569.371L946.081 568.015L947.265 564.434L950.376 562.89L952.185 564.316L956.071 563.275L957.101 564.957L960.361 564.846L961.666 567.458L963.955 567.628L965.153 569.733L966.775 569.327L968.671 574.685L974.854 575.5L979.948 588.715L983.336 589.732L984.666 592.51L987.627 592.397L990.852 598.43L994.324 598.375L995.004 600.713L1001.83 602.435L1003.14 601.001L1008.94 611.678L1013.2 614.999L1016.31 614.338L1014.34 611.869L1017.22 610.569L1015.02 609.333L1016.22 606.445L1018.19 606.551L1018.52 608.606L1021.72 604.323L1022.12 606.055L1023.96 605.545L1027.14 602.618L1026.24 601.273L1027.55 601.805L1028.17 600.961L1028.82 601.955L1031.37 600.311L1032.05 601.856L1034 600.434L1034.6 602.346L1037.54 597.647L1041.5 597.775L1040.63 596.092L1046.77 597.15L1047.55 595.752L1048.96 597.03L1047.47 598.485L1052.73 598.616L1054.05 601.321L1055.18 599.194L1056.08 599.413L1054.59 602.577L1057.38 602.177L1058.04 604.04L1060 602.623L1062.76 605.999L1062.79 602.36L1066.9 603.997L1066.29 599.205L1064.09 598.871L1065.1 596.312L1063.62 595.554L1063.64 593.429L1065.63 590.812L1068.44 592.885L1069.46 590.294L1070.2 592.714L1072.04 590.966L1071.75 589.189L1074.52 591.41L1078.48 592.047L1078.64 594.669L1081.26 597.497L1083.38 594.868L1084.91 596.364L1085.65 594.489L1086.8 596.049L1089.6 594.884L1090.47 596.391L1093.96 592.843L1099.87 595.702L1105.44 594.091L1104.72 589.865L1100.48 583.595L1101.2 582.23L1096.05 575.625L1097.11 573.473L1092.16 571.283L1091.55 567.968L1088.03 562.198L1084.22 562.571L1081.92 560.6L1081.31 556.553L1078.15 552.224L1074.55 550.559L1073.98 547.176L1072.52 547.922L1071.63 546.216L1070.27 546.043L1071.28 544.244L1068.05 542.241L1067.24 538.799L1065.2 538.622L1062.99 535.152L1055.48 530.37L1055.5 528.638L1057.15 528.408L1054.78 525.855L1050.59 524.374L1050.56 521.227L1053.28 520.423L1050.96 516.992L1050.98 514.69L1054.46 512.544L1053.9 511.209L1058.87 509.313L1054.66 505.719L1056 505.12L1056.94 501.112L1050.79 501.699L1050.17 503.425L1047.34 503.025L1042.49 494.403L1042.23 492.468L1045.12 490.495L1041.93 488.644L1041.77 485.811L1044.82 485.188L1045.98 481.567L1041.02 481.772L1040.72 479.219L1039.48 479.07L1040.07 476.943L1038.18 477.829L1037.51 479.626L1034.75 481.898L1032.11 481.373L1029.51 478.596L1031.16 475.199L1029.92 474.285L1030.72 470.887L1027.59 471.621L1025.23 467.947L1024.79 471.925L1022.15 472.533L1017.29 467.466L1015.21 470.617L1015.6 472.226L1012.82 472.024L1008.14 469.133L1006.27 474.515L1003.74 476.538L996.438 467.731L994.324 473.35L994.272 471.529L990.971 468.198L991.128 463.861L992.107 462.654L992.441 463.769L993.942 461.953L995.111 462.51L995.697 461.847L997.745 463.538L999.229 451.481L1004.49 444.362L1007.98 443.484L1012.2 445.724L1016.92 442.203L1020.12 443.676L1023.32 441.921L1028.46 445.008L1030.52 444.421L1027.07 437.876L1027.18 426.312L1029.69 422.502L1035.34 423.09L1038.23 419.34L1041.94 420.883L1043.7 417.432L1047.64 417.141L1047.71 416.306L1044.54 415.582L1042.13 412.42L1042.88 407.386L1045.07 404.209L1078.34 406.211L1079.06 401.786L1076.66 392.51L1078.9 386.848L1075.42 369.77L1076.61 365.973L1079.27 365.152L1078.05 348.845L1079.94 345.259L1076.75 326.28L1076.72 316.485L1081.32 310.293L1087.94 281.952L1087.45 280.445L1081.68 280.05L1080.61 277.408L1082.13 275.865L1082.32 276.724L1083.15 276.688L1083.63 272.895L1086.93 270.743L1099.18 268.305L1105.44 256.688L1108.88 244.867L1115.86 227.035L1128.28 218.704L1136.52 220.813L1146.39 219.358L1151.65 216.586L1163.05 215.811L1172.92 218.908L1178.26 223.238L1184.78 225.016L1188.96 231.512L1189.92 224.643L1194.97 217.542L1198.09 216.566L1206.38 207.138L1214.67 190.064L1217 182.205L1209.07 166.232L1211.07 156.099L1209.04 151.796L1208.09 143.026L1210.9 138.545L1209.93 133.421L1211.13 128.935L1184.76 130.367L1165.47 125.347L1143.97 123.721L1119.8 112.916L1097.04 101.071L1088.59 70.096L1087.42 63.295L1081.81 56.3682L1067.45 67.7655L1046.49 71.1585L1041.98 69.7859L1040.97 67.2473L1040.98 67.2434L1035.03 51.8744L1028.85 46.7248L1022.5 56.514L995.603 53.921L981.777 56.6044L973.408 44.5882L960.68 39.9423L958.107 34.0775L959.521 31.0787L956.547 25.7168L949.272 28.3077L943.311 27.952L928.658 21.79L922.048 22.2944L915.855 19.1824L901.572 23.4552L885.325 23.9052L874.336 28.3824L856.151 38.8944L849.918 40.1855L843.57 39.2783L836.895 42.6882L825.496 45.6368L813.085 44.8783L795.034 49.8695L783.357 47.5948L773.233 50.3706L773.242 50.4076L768.416 51.8773L748.092 62.8279L737.832 62.856L729.678 67.894L724.458 73.7438L719.685 84.0201L699.529 96.4162L684.934 118.727L679.547 123.978L671.938 127.374L666.372 137.162L656.405 142.478L642.581 142.928L622.877 154.89L608.383 155.142L601.126 158.772L601.073 158.729L588.963 161.39L581.686 159.283L566.176 146.049L566.534 145.826L550.343 140.079L542.015 141.027L537.779 143.553L534.183 143.902L525.814 141.864L514.615 132.546L506.905 131.884L501.799 132.759L499.742 134.96L492.282 138.115L476.75 137.046L467.016 143.171L462.794 143.973L454.42 140.045L442.513 128.499L419.288 122.91L398.598 130.208L393.292 136.505L386.886 140.338L379.164 140.256L353.849 144.458L337.542 139.428L331.492 134.636L314.837 128.016L305.43 127.452L290.899 124.02L283.725 119.955L274.756 117.177L272.205 113.419L267.62 111.861L259.606 112.089L250.021 114.673L250.023 114.655L246.77 115.585L239.097 113.851L231.909 110.145L225.847 103.797L217.496 102.717L208.731 99.3336L178.497 100.716L168.166 103.803L153.422 111.178L136.506 114.225L119.698 110.121L115.21 107.371L101.946 103.844L97.9781 100.171L95.0492 91.1064L102.838 65.3923L107.358 61.1702L112.211 59.1952L127.77 56.5867L134.651 44.9781L133.775 37.0363L130.645 34.2656L110.194 30.612L99.9143 22.6473L88.2835 16.7311L76.1892 5.28014L66.2838 3.75988L63.3301 1.50973ZM1081.38 275.063L1082.01 275.297L1081.95 275.012L1081.38 275.063ZM993.082 474.942L994.219 473.966L995.746 476.028L994.519 477.331L993.082 474.942Z" fill="#F2F4F7"/>
</svg>
