<svg width="12" height="13" viewBox="0 0 12 13" fill="none" xmlns="http://www.w3.org/2000/svg">
<path d="M3.33333 0.5C1.49267 0.5 0 1.99267 0 3.83333V9.16667C0 11.0073 1.49267 12.5 3.33333 12.5H8.66667C10.5073 12.5 12 11.0073 12 9.16667V3.83333C12 1.99267 10.5073 0.5 8.66667 0.5H3.33333ZM10 1.83333C10.368 1.83333 10.6667 2.132 10.6667 2.5C10.6667 2.868 10.368 3.16667 10 3.16667C9.632 3.16667 9.33333 2.868 9.33333 2.5C9.33333 2.132 9.632 1.83333 10 1.83333ZM6 3.16667C7.84067 3.16667 9.33333 4.65933 9.33333 6.5C9.33333 8.34067 7.84067 9.83333 6 9.83333C4.15933 9.83333 2.66667 8.34067 2.66667 6.5C2.66667 4.65933 4.15933 3.16667 6 3.16667ZM6 4.5C5.46957 4.5 4.96086 4.71071 4.58579 5.08579C4.21071 5.46086 4 5.96957 4 6.5C4 7.03043 4.21071 7.53914 4.58579 7.91421C4.96086 8.28929 5.46957 8.5 6 8.5C6.53043 8.5 7.03914 8.28929 7.41421 7.91421C7.78929 7.53914 8 7.03043 8 6.5C8 5.96957 7.78929 5.46086 7.41421 5.08579C7.03914 4.71071 6.53043 4.5 6 4.5Z" fill="#616B67"/>
</svg>
