<svg width="12" height="13" viewBox="0 0 12 13" fill="none" xmlns="http://www.w3.org/2000/svg">
<path d="M10.6667 0.5H1.33333C0.596667 0.5 0 1.09667 0 1.83333V11.1667C0 11.9033 0.596667 12.5 1.33333 12.5H10.6667C11.4033 12.5 12 11.9033 12 11.1667V1.83333C12 1.09667 11.4033 0.5 10.6667 0.5ZM4 9.83333H2.318V5.16667H4V9.83333ZM3.12933 4.31133C2.61533 4.31133 2.272 3.96867 2.272 3.51133C2.272 3.054 2.61467 2.71133 3.186 2.71133C3.7 2.71133 4.04333 3.054 4.04333 3.51133C4.04333 3.96867 3.70067 4.31133 3.12933 4.31133ZM10 9.83333H8.372V7.28267C8.372 6.57733 7.938 6.41467 7.77533 6.41467C7.61267 6.41467 7.07 6.52333 7.07 7.28267C7.07 7.39133 7.07 9.83333 7.07 9.83333H5.388V5.16667H7.07V5.818C7.28667 5.438 7.72067 5.16667 8.53467 5.16667C9.34867 5.16667 10 5.818 10 7.28267V9.83333Z" fill="#616B67"/>
</svg>
