<svg width="134" height="133" viewBox="0 0 134 133" fill="none" xmlns="http://www.w3.org/2000/svg">
<path d="M67 118.824C66.8369 118.637 66.6536 118.425 66.4514 118.19C65.5154 117.104 64.1763 115.521 62.5685 113.54C59.3517 109.577 55.0647 104.026 50.7802 97.6758C46.4932 91.322 42.2239 84.1896 39.0301 77.0606C35.8291 69.9154 33.75 62.8642 33.75 56.6481C33.75 38.2649 48.6168 23.3981 67 23.3981C85.3832 23.3981 100.25 38.2649 100.25 56.6481C100.25 62.8642 98.171 69.9154 94.9699 77.0606C91.7761 84.1896 87.5069 91.322 83.2199 97.6758C78.9354 104.026 74.6483 109.577 71.4316 113.54C69.8237 115.521 68.4846 117.104 67.5487 118.19C67.3465 118.425 67.1632 118.637 67 118.824Z" fill="#DE1515" stroke="white" stroke-width="2.46296"/>
<circle cx="67" cy="56" r="17" fill="white"/>
</svg>
