<svg width="32" height="32" viewBox="0 0 32 32" fill="none" xmlns="http://www.w3.org/2000/svg">
<rect width="32" height="32" fill="white"/>
<path fill-rule="evenodd" clip-rule="evenodd" d="M5 5H11.7692V6.69231H7.88877L13.2145 12.0163L12.0163 13.2145L6.69231 7.88877V11.7692H5V5ZM24.1112 6.69231H20.2308V5H27V11.7692H25.3077V7.88877L19.9837 13.2145L18.7855 12.0163L24.1112 6.69231ZM13.2128 19.9837L7.89046 25.3077H11.7692V27H5V20.2308H6.69231V24.1112L12.0163 18.7855L13.2128 19.9837ZM19.982 18.7855L25.3077 24.1112V20.2308H27V27H20.2308V25.3077H24.1112L18.7855 19.9837L19.9837 18.7855H19.982Z" fill="#1A553C"/>
</svg>
