<svg width="50" height="74" viewBox="0 0 50 74" fill="none" xmlns="http://www.w3.org/2000/svg">
<path d="M25 73.1478C24.8306 72.9481 24.6128 72.6893 24.3519 72.3756C23.6714 71.5572 22.6982 70.3654 21.53 68.8742C19.1932 65.8913 16.0783 61.7133 12.9644 56.9319C9.84955 52.149 6.74211 46.7721 4.41496 41.3906C2.08483 36.0021 0.554237 30.648 0.554237 25.9C0.554237 11.8685 11.503 0.554237 25 0.554237C38.497 0.554237 49.4458 11.8685 49.4458 25.9C49.4458 30.648 47.9152 36.0021 45.585 41.3906C43.2579 46.7721 40.1505 52.149 37.0356 56.9319C33.9217 61.7133 30.8068 65.8913 28.47 68.8742C27.3018 70.3654 26.3286 71.5572 25.6481 72.3756C25.3872 72.6893 25.1693 72.9481 25 73.1478ZM18.2878 32.8257C20.0645 34.6664 22.4785 35.7042 25 35.7042C27.5214 35.7042 29.9355 34.6664 31.7122 32.8257C33.4883 30.9856 34.4828 28.494 34.4828 25.9C34.4828 23.306 33.4883 20.8144 31.7122 18.9743C29.9355 17.1336 27.5214 16.0958 25 16.0958C22.4785 16.0958 20.0645 17.1336 18.2878 18.9743C16.5117 20.8144 15.5172 23.306 15.5172 25.9C15.5172 28.494 16.5117 30.9856 18.2878 32.8257Z" fill="#21835A" stroke="white" stroke-width="1.10847"/>
</svg>
