<svg width="14" height="12" viewBox="0 0 14 12" fill="none" xmlns="http://www.w3.org/2000/svg">
<path d="M13.3877 2.1253C13.2343 1.55197 12.7823 1.09997 12.209 0.946636C11.169 0.667969 6.99967 0.667969 6.99967 0.667969C6.99967 0.667969 2.83034 0.667969 1.79034 0.946636C1.21701 1.09997 0.765008 1.55197 0.611674 2.1253C0.333008 3.1653 0.333008 6.0013 0.333008 6.0013C0.333008 6.0013 0.333008 8.8373 0.611674 9.8773C0.765008 10.4506 1.21701 10.9026 1.79034 11.056C2.83034 11.3346 6.99967 11.3346 6.99967 11.3346C6.99967 11.3346 11.169 11.3346 12.209 11.056C12.783 10.9026 13.2343 10.4506 13.3877 9.8773C13.6663 8.8373 13.6663 6.0013 13.6663 6.0013C13.6663 6.0013 13.6663 3.1653 13.3877 2.1253ZM5.66634 8.31064V3.69197L9.66634 6.0013L5.66634 8.31064Z" fill="#616B67"/>
</svg>
